<svg width="28" height="28" viewBox="0 0 28 28" fill="none" xmlns="http://www.w3.org/2000/svg">
<g clip-path="url(#clip0)">
<path d="M27.1797 11.9492C26.7267 11.9492 26.3594 12.3165 26.3594 12.7695V14.4102C26.3594 14.8625 25.9914 15.2305 25.5391 15.2305H24.6641C24.6641 12.3776 23.3064 9.71338 21.0406 8.0121C20.1894 7.37302 19.2017 6.86383 18.0999 6.49469C17.8478 4.24397 15.9341 2.48828 13.6172 2.48828C11.2935 2.48828 9.37497 4.25425 9.13199 6.51448C8.3691 6.75872 7.69825 7.035 7.04091 7.41552C5.82181 6.22628 4.13465 5.70664 2.28829 6.23913C1.84062 6.3683 1.59004 6.84452 1.73742 7.28667L3.22175 11.7401C3.07989 12.0759 2.95859 12.4199 2.85873 12.7695H1.36719C0.61332 12.7695 0 13.3829 0 14.1367V17.1445C0 17.8984 0.61332 18.5117 1.36719 18.5117H3.13923C3.89495 20.3832 5.33739 21.8508 7.4375 22.8845V24.6914C7.4375 25.1444 7.80478 25.5117 8.25781 25.5117H11.5391C11.9921 25.5117 12.3594 25.1444 12.3594 24.6914V23.8711H14.8203V24.6914C14.8203 25.1444 15.1876 25.5117 15.6406 25.5117H18.9219C19.3749 25.5117 19.7422 25.1444 19.7422 24.6914V22.8781C21.8643 21.7804 23.8975 19.6452 24.4909 16.8711H25.5391C26.896 16.8711 28 15.7671 28 14.4102V12.7695C28 12.3165 27.6327 11.9492 27.1797 11.9492ZM13.6172 4.12891C15.2003 4.12891 16.4883 5.41685 16.4883 7C16.4883 8.58315 15.2003 9.87109 13.6172 9.87109C12.034 9.87109 10.7461 8.58315 10.7461 7C10.7461 5.41685 12.034 4.12891 13.6172 4.12891ZM18.5916 21.6109C18.2938 21.7418 18.1016 22.0364 18.1016 22.3617V23.8711H16.4609V23.0508C16.4609 22.5977 16.0937 22.2305 15.6406 22.2305H11.5391C11.086 22.2305 10.7188 22.5977 10.7188 23.0508V23.8711H9.07812V22.3617C9.07812 22.0364 8.8859 21.7418 8.58812 21.6109C6.42206 20.6581 5.08402 19.295 4.4975 17.4437C4.38949 17.1028 4.07312 16.8711 3.71552 16.8711H1.64062V14.4102H3.50164C3.89112 14.4102 4.22691 14.1363 4.30522 13.7547C4.41984 13.1961 4.60108 12.6493 4.84378 12.1295C4.93259 11.9393 4.94512 11.7222 4.87873 11.523L3.59603 7.67446C5.24393 7.61337 6.14327 8.85303 6.20621 8.94305C6.44705 9.3112 6.95609 9.43387 7.35345 9.15852C8.00253 8.70882 8.5931 8.44069 9.26888 8.20028C9.44694 8.8445 9.76434 9.43108 10.1869 9.92578H9.51562C9.06259 9.92578 8.69531 10.2931 8.69531 10.7461C8.69531 11.1991 9.06259 11.5664 9.51562 11.5664H17.7188C18.1718 11.5664 18.5391 11.1991 18.5391 10.7461C18.5391 10.2931 18.1718 9.92578 17.7188 9.92578H17.0475C17.4723 9.42834 17.791 8.8381 17.9685 8.18973C18.7459 8.4863 19.4456 8.86616 20.0554 9.32405C21.9139 10.7194 23.0234 12.9274 23.0234 15.2305C23.0234 18.2912 20.7975 20.6404 18.5916 21.6109Z" fill="white"/>
<path d="M7.4375 14.4102C7.89055 14.4102 8.25781 14.0429 8.25781 13.5898C8.25781 13.1368 7.89055 12.7695 7.4375 12.7695C6.98445 12.7695 6.61719 13.1368 6.61719 13.5898C6.61719 14.0429 6.98445 14.4102 7.4375 14.4102Z" fill="white"/>
</g>
<defs>
<clipPath id="clip0">
<rect width="28" height="28" fill="white"/>
</clipPath>
</defs>
</svg>
