<svg width="40" height="40" viewBox="0 0 40 40" fill="none" xmlns="http://www.w3.org/2000/svg">
<circle cx="20" cy="20" r="19" stroke="#FFD952" stroke-width="2"/>
<path d="M18.4336 9.80859C18.3482 9.89395 18.3437 9.95684 18.3437 11.0125V12.1266L18.1326 12.1805C17.4588 12.3602 16.4166 12.8273 15.8416 13.2092L15.5631 13.3934L15.5182 13.2676C15.4957 13.1957 14.8848 12.5309 14.1615 11.7852L12.8498 10.4375H12.6566C12.5084 10.4375 12.4455 10.46 12.3826 10.5453C12.3332 10.6037 12.1895 11.0619 12.0547 11.5695C11.9244 12.0682 11.8121 12.4859 11.8076 12.4904C11.8031 12.4949 11.3674 12.6027 10.8373 12.7285C9.77266 12.9756 9.71875 13.007 9.71875 13.317C9.71875 13.4832 9.76816 13.5416 11.0484 14.8578C11.7762 15.608 12.4186 16.2369 12.4725 16.2504C12.5264 16.2639 12.6521 16.2549 12.751 16.2324C12.8498 16.21 12.9441 16.1875 12.9621 16.1875C12.9801 16.1875 12.9262 16.3133 12.8408 16.466C12.5982 16.9152 12.2883 17.7148 12.149 18.2629C11.9469 19.049 11.875 19.6285 11.875 20.5045C11.875 21.7129 12.0457 22.6248 12.468 23.7029C12.6746 24.224 12.7061 24.2734 12.7914 24.2465C12.9127 24.2105 13.4023 23.9635 13.4023 23.941C13.4023 23.932 13.3439 23.7883 13.2721 23.6266C12.5174 21.951 12.4275 19.8307 13.025 18.0293C13.1912 17.5262 13.5236 16.8029 13.7527 16.4346L13.892 16.21L14.5254 16.8434L15.1588 17.4723L14.9836 17.8271C14.7859 18.2225 14.6062 18.7391 14.4984 19.2197C14.3861 19.7094 14.3637 20.9717 14.4535 21.5107C14.8398 23.7703 16.4031 25.5896 18.5818 26.3174C19.1928 26.524 19.7678 26.6094 20.5 26.6094C21.2143 26.6094 21.7713 26.5285 22.3777 26.3354C24.552 25.6391 26.1916 23.7344 26.5465 21.4928C26.6363 20.9223 26.6139 19.7049 26.5016 19.2197C26.3937 18.7391 26.2141 18.2225 26.0164 17.8271L25.8367 17.4678L26.4746 16.8434L27.1125 16.2145L27.2248 16.3896C27.382 16.6457 27.7055 17.2971 27.7998 17.5441C27.8447 17.6654 27.9031 17.7598 27.9301 17.7598C27.957 17.7598 28.1277 17.7059 28.3029 17.634L28.6264 17.5127L28.4332 17.0545C28.3254 16.8029 28.1816 16.502 28.1187 16.3896C28.0514 16.2773 28.0154 16.1875 28.0334 16.1875C28.0514 16.1875 28.1502 16.21 28.249 16.2324C28.3479 16.2549 28.4736 16.2639 28.5275 16.2504C28.5814 16.2369 29.2238 15.608 29.9516 14.8578C31.2318 13.5416 31.2812 13.4832 31.2812 13.317C31.2812 13.007 31.2273 12.9756 30.1582 12.724C29.6281 12.6027 29.1924 12.4949 29.1879 12.4904C29.1879 12.4859 29.0756 12.0682 28.9453 11.5695C28.8105 11.0619 28.6668 10.6037 28.6174 10.5453C28.5545 10.46 28.4916 10.4375 28.3434 10.4375H28.1502L26.8385 11.7852C26.1152 12.5309 25.5043 13.1957 25.4818 13.2676L25.4369 13.3934L25.1809 13.2227C24.5834 12.8273 23.4918 12.3332 22.8943 12.185L22.6562 12.1266V11.0125C22.6562 9.95684 22.6518 9.89395 22.5664 9.80859C22.3822 9.62441 22.207 9.67832 21.3221 10.2129L20.5 10.7025L19.6824 10.2129C18.793 9.67832 18.6178 9.62441 18.4336 9.80859ZM19.7049 11.1338L20.1406 11.3898V12.7375V14.0852L20.0418 14.0223C19.9834 13.9863 19.7408 13.8381 19.5027 13.6943L19.0625 13.4383V12.0906V10.743L19.1658 10.8059C19.2197 10.8418 19.4623 10.99 19.7049 11.1338ZM21.9375 12.0951V13.4383L21.5018 13.6943C21.2592 13.8381 21.0166 13.9863 20.9627 14.0223L20.8594 14.0852V12.7375V11.3943L21.3895 11.0754C21.677 10.9002 21.9195 10.7564 21.9285 10.752C21.933 10.752 21.9375 11.3539 21.9375 12.0951ZM13.4697 12.1984C13.7932 12.5264 14.2064 12.9531 14.3906 13.1463L14.7275 13.4922L14.6197 13.91C14.5568 14.1346 14.4939 14.3906 14.467 14.476L14.4266 14.6287L14.202 14.4086C14.0807 14.2873 13.6584 13.8516 13.2676 13.4428L12.5533 12.6971L12.6971 12.1535C12.7734 11.8525 12.8498 11.6055 12.8633 11.6055C12.8768 11.6055 13.1508 11.875 13.4697 12.1984ZM28.3029 12.1535L28.4467 12.6971L27.7324 13.4428C27.3416 13.8516 26.9193 14.2873 26.798 14.4086L26.5734 14.6287L26.533 14.476C26.5061 14.3906 26.4432 14.1346 26.3803 13.91L26.2725 13.4922L26.6094 13.1463C27.3686 12.3557 28.1143 11.6055 28.1367 11.6055C28.1502 11.6055 28.2266 11.8525 28.3029 12.1535ZM18.3662 13.8381C18.3842 13.9055 18.5279 14.0223 18.8199 14.193C19.0535 14.3322 19.2287 14.4625 19.2107 14.4805C19.1928 14.4984 19.0355 14.5479 18.8604 14.5928C18.2 14.7635 17.3959 15.1543 16.8389 15.5766L16.5693 15.7787L15.9539 15.1678L15.3385 14.5523L15.4822 14.4266C16.0348 13.9504 17.0994 13.3529 17.8945 13.0699L18.3213 12.9172L18.3303 13.3305C18.3393 13.5551 18.3527 13.7842 18.3662 13.8381ZM23.9141 13.4068C24.3633 13.618 25.2033 14.157 25.5178 14.4266L25.6615 14.5523L25.0461 15.1678L24.4307 15.7787L24.1611 15.5766C23.6041 15.1543 22.8 14.7635 22.1396 14.5928C21.9689 14.5479 21.8072 14.4984 21.7893 14.4805C21.7713 14.4625 21.942 14.3367 22.1756 14.1975C22.4092 14.0582 22.6113 13.91 22.6293 13.8695C22.6428 13.8336 22.6562 13.6 22.6562 13.3529V12.9127L23.0516 13.0475C23.2672 13.1238 23.6535 13.2855 23.9141 13.4068ZM12.7061 13.9953C13.1014 14.3996 13.5236 14.8309 13.6404 14.9566L13.8561 15.1857L13.3484 15.3025C13.0699 15.3654 12.8094 15.4238 12.7734 15.4328C12.7375 15.4373 12.2973 15.024 11.7672 14.4805L10.8283 13.5191L11.318 13.3979C11.5875 13.3305 11.848 13.2766 11.8975 13.2721C11.9604 13.2676 12.2209 13.5057 12.7061 13.9953ZM29.6596 13.3934L30.1717 13.5191L29.2328 14.4805C28.7027 15.024 28.2625 15.4373 28.2266 15.4328C28.1906 15.4238 27.9301 15.3654 27.6516 15.3025L27.1439 15.1857L27.3596 14.9566C28.0693 14.1975 29.0217 13.2676 29.0801 13.2676C29.116 13.2721 29.3766 13.326 29.6596 13.3934ZM20.5 15.0824C20.6123 15.0824 20.7381 15.0689 20.783 15.0465C20.8549 15.0105 20.8594 15.1633 20.8594 17.9125C20.8594 20.3338 20.8504 20.8414 20.7965 20.9717C20.7246 21.1379 20.5809 21.2053 20.3832 21.1559C20.1406 21.093 20.1406 21.075 20.1406 17.9125C20.1406 15.1633 20.1451 15.0105 20.2215 15.0465C20.2619 15.0689 20.3877 15.0824 20.5 15.0824ZM19.4219 16.1471C19.4219 17.0455 19.4219 17.05 19.323 17.077C19.2646 17.0904 19.0266 17.1982 18.7975 17.315L18.3707 17.5352L17.7598 16.9377L17.1443 16.3447L17.2746 16.2279C17.4812 16.0438 18.1506 15.6619 18.5324 15.5137C18.8424 15.3924 19.2826 15.2576 19.3904 15.2486C19.4084 15.2441 19.4219 15.6484 19.4219 16.1471ZM22.252 15.4328C22.4631 15.5092 22.7686 15.6395 22.9348 15.7248C23.2537 15.891 23.8467 16.2818 23.8377 16.3223C23.8332 16.3357 23.5637 16.6143 23.2312 16.9377L22.6293 17.5352L22.207 17.3195C21.9734 17.1982 21.7354 17.0904 21.6814 17.077C21.5781 17.05 21.5781 17.0455 21.5781 16.1471V15.2441L21.7264 15.2756C21.8027 15.2891 22.0408 15.3609 22.252 15.4328ZM19.4129 20.1541L19.3994 20.5898L16.9781 18.2C14.6691 15.918 14.5658 15.8057 14.6826 15.7742C14.8533 15.7293 14.9656 15.617 15.0016 15.4598C15.0285 15.325 15.0689 15.3609 17.2252 17.5217L19.4264 19.7184L19.4129 20.1541ZM26.1062 15.6619C26.1422 15.7023 26.2365 15.7563 26.3084 15.7742C26.4387 15.8102 26.3982 15.8506 24.0219 18.2L21.6006 20.5898L21.5871 20.1541L21.5736 19.7184L23.7658 17.5262C25.8996 15.3924 25.958 15.3385 25.9984 15.4553C26.0209 15.5271 26.0703 15.617 26.1062 15.6619ZM16.4076 18.7211L17.05 19.3635L16.9781 19.6824C16.9332 19.8756 16.9062 20.2035 16.9062 20.5135C16.9062 21.1559 17.0051 21.5826 17.2971 22.1621C17.4768 22.5215 17.5801 22.6563 17.9395 23.0201C18.6627 23.7523 19.3275 24.0443 20.3428 24.0803C21.4344 24.1207 22.2025 23.8422 22.9617 23.1279C23.5008 22.6248 23.8242 22.0768 24.0039 21.3805C24.1162 20.9313 24.1252 20.1451 24.0219 19.6824L23.95 19.3635L24.5924 18.7211C24.9473 18.3662 25.2527 18.0742 25.2662 18.0742C25.3201 18.0742 25.5807 18.7436 25.702 19.1928C25.8098 19.5881 25.8187 19.6959 25.8187 20.5C25.8187 21.3041 25.8098 21.4119 25.702 21.8027C25.4369 22.782 24.9787 23.5727 24.2779 24.2779C23.5682 24.9832 22.7641 25.4459 21.8027 25.6975C21.1693 25.8637 20.1227 25.8906 19.4713 25.7559C17.4273 25.3381 15.8506 23.8467 15.3025 21.8162C15.1902 21.4119 15.1812 21.3086 15.1812 20.5C15.1812 19.6959 15.1902 19.5881 15.298 19.1928C15.4193 18.7436 15.6799 18.0742 15.7338 18.0742C15.7473 18.0742 16.0527 18.3662 16.4076 18.7211ZM19.0939 21.3266C19.1748 21.367 19.3006 21.3984 19.377 21.3984C19.4803 21.3984 19.5521 21.4434 19.6824 21.5871C19.907 21.8387 20.1361 21.9375 20.5 21.9375C20.8639 21.9375 21.093 21.8387 21.3176 21.5871C21.4479 21.4434 21.5197 21.3984 21.623 21.3984C21.8611 21.3984 22.0273 21.2727 22.6922 20.6213L23.3391 19.9834L23.3211 20.5449C23.2986 21.2143 23.1908 21.5691 22.8629 22.0678C22.4811 22.6428 21.8207 23.11 21.1693 23.2627C20.801 23.348 20.199 23.348 19.8307 23.2627C19.1793 23.11 18.5189 22.6428 18.1371 22.0678C17.8092 21.5691 17.7014 21.2143 17.6789 20.5449L17.6609 19.9834L18.3078 20.6213C18.6627 20.9672 19.0131 21.2861 19.0939 21.3266Z" fill="white"/>
<path d="M28.4736 18.3213C28.276 18.3752 28.1187 18.4426 28.1232 18.465C28.1277 18.492 28.1771 18.7211 28.2355 18.9771C28.3254 19.3904 28.3344 19.5701 28.3344 20.5C28.3344 21.6814 28.285 22.0453 27.975 22.9707C26.9643 25.9984 24.1746 28.1637 21.0211 28.3523C19.2467 28.4646 17.5936 28.0154 16.0977 27.0271C15.4463 26.5914 14.4625 25.6301 14.0402 25.0057L13.7572 24.5924L13.4562 24.7721C13.29 24.8754 13.1463 24.9652 13.1373 24.9742C13.0744 25.0326 13.7482 25.949 14.202 26.4342L14.5254 26.7756L13.5461 28.4557L12.5713 30.1357V30.4771C12.5713 30.7781 12.5848 30.8365 12.6926 30.9758C12.9217 31.2768 12.9486 31.2812 14.6332 31.2812C16.0527 31.2812 16.1561 31.2768 16.3223 31.1914C16.5379 31.0836 16.5334 31.0836 17.2656 29.8078C17.7867 28.9004 17.8811 28.7611 17.9574 28.7791C19.2557 29.0846 19.5432 29.125 20.5 29.125C21.3086 29.125 21.7668 29.0756 22.4541 28.9184C22.7281 28.8555 22.9887 28.7926 23.0381 28.7836C23.1145 28.7656 23.2223 28.9273 23.7344 29.8258C24.0668 30.4143 24.3902 30.9533 24.4531 31.0252C24.6553 31.2723 24.7182 31.2812 26.3668 31.2812C27.8088 31.2812 27.8852 31.2768 28.0424 31.1869C28.3119 31.0387 28.4287 30.823 28.4287 30.4771V30.1807L27.4494 28.4871L26.4701 26.7936L26.9059 26.3084C27.9436 25.1449 28.6488 23.7568 28.9812 22.207C29.0936 21.6859 29.098 21.5691 29.1025 20.5225C29.1025 19.5297 29.0891 19.341 28.9992 18.8963C28.851 18.1506 28.9004 18.2045 28.4736 18.3213ZM16.0842 27.9346C16.3088 28.0738 16.6322 28.249 16.8029 28.3209C16.9691 28.3973 17.1129 28.4646 17.1219 28.4736C17.1354 28.4871 16.0258 30.4143 15.9539 30.5041C15.882 30.5939 13.3619 30.585 13.3305 30.4996C13.317 30.4637 13.7168 29.727 14.2154 28.8645L15.1273 27.2877L15.3969 27.4898C15.5496 27.5977 15.8551 27.7998 16.0842 27.9346ZM26.7891 28.8914C27.5123 30.1492 27.6875 30.4906 27.6381 30.5221C27.6021 30.5445 27.0182 30.5625 26.3354 30.5625C25.2123 30.5625 25.091 30.5535 25.0281 30.4816C24.9338 30.3783 23.8557 28.4961 23.8736 28.4781C23.8826 28.4736 24.1027 28.3613 24.3633 28.2311C24.6238 28.1053 25.0686 27.8447 25.3516 27.6516C25.6346 27.4584 25.8682 27.3012 25.8727 27.3012C25.8727 27.3057 26.2859 28.0199 26.7891 28.8914Z" fill="white"/>
</svg>
