<svg width="40" height="40" viewBox="0 0 40 40" fill="none" xmlns="http://www.w3.org/2000/svg">
<circle cx="20" cy="20" r="19" stroke="#FDA0FF" stroke-width="2"/>
<path d="M24.9019 9.12005L24.8076 9.24475V16.4588V23.6729L24.9019 23.7976C25.0232 23.9592 25.2881 23.9638 25.4273 23.8114L25.5261 23.7052V18.6618V13.6184H26.6623C27.794 13.6184 27.803 13.6184 27.8973 13.5122C28.032 13.3644 28.0275 13.1381 27.8838 12.995L27.776 12.8795H26.6488H25.5261V11.3092V9.73893H28.2476C30.4077 9.73893 30.96 9.75278 30.9331 9.79435C30.9151 9.82668 30.7085 10.1546 30.4795 10.5195C30.2145 10.9397 30.0619 11.2307 30.0619 11.3092C30.0619 11.3877 30.2235 11.6879 30.5109 12.1452L30.9645 12.8564L30.008 12.8795C29.4825 12.8933 29.02 12.9211 28.9751 12.9395C28.8718 12.995 28.7955 13.212 28.8314 13.3598C28.8898 13.6138 28.9257 13.6184 30.4301 13.6184C31.7549 13.6184 31.8178 13.6138 31.9031 13.5261C32.0917 13.3321 32.0378 13.1751 31.445 12.2421C31.1441 11.7664 30.8972 11.3462 30.8972 11.3092C30.8972 11.2723 31.1441 10.852 31.445 10.3763C32.0378 9.44335 32.0917 9.28632 31.9031 9.09234C31.8133 8.99997 31.7549 8.99997 28.4048 8.99997H24.9917L24.9019 9.12005Z" fill="white"/>
<path d="M20.6806 11.6603C20.5144 11.8773 20.5548 11.979 20.9545 12.3992L21.3228 12.7872L20.9545 13.1751C20.5638 13.5816 20.5234 13.6878 20.6581 13.8864C20.7569 14.0342 20.9186 14.0896 21.0713 14.0296C21.1386 14.0065 21.3407 13.8356 21.5204 13.6508L21.8437 13.3183L22.194 13.6693C22.3826 13.8633 22.5757 14.0342 22.6161 14.048C22.7239 14.0896 22.9574 13.9972 23.0113 13.8956C23.0382 13.8494 23.0562 13.7432 23.0562 13.6647C23.0562 13.54 22.9933 13.4522 22.7104 13.152L22.3691 12.7872L22.7104 12.4223C23.0113 12.1036 23.0562 12.039 23.0562 11.8912C23.0562 11.6695 22.9305 11.5402 22.7104 11.5402C22.5622 11.5402 22.5038 11.5818 22.194 11.8958L21.8482 12.2514L21.4889 11.8958C21.1656 11.5725 21.1207 11.5402 20.9545 11.5402C20.8108 11.5402 20.7524 11.5679 20.6806 11.6603Z" fill="white"/>
<path d="M13.3786 11.8727C13.3292 11.9004 13.0822 12.1313 12.8307 12.3854L12.3726 12.8518L12.1481 12.6348C12.0223 12.5147 11.8831 12.4177 11.8337 12.4177C11.5553 12.4177 11.3712 12.6763 11.47 12.9211C11.4969 12.995 11.681 13.2121 11.8741 13.406C12.3861 13.9233 12.3592 13.9279 13.2124 13.0504C13.8456 12.3992 13.895 12.3346 13.895 12.1775C13.895 11.9004 13.6166 11.7341 13.3786 11.8727Z" fill="white"/>
<path d="M16.0596 12.4315C15.9563 12.5469 15.9339 12.7363 16.0057 12.8749C16.0282 12.921 16.2392 13.0781 16.4773 13.2212L16.9039 13.4845V13.8032C16.9039 13.9833 16.8949 14.1265 16.8904 14.1265C16.8814 14.1265 16.7647 14.0664 16.6299 13.9879C16.4952 13.914 16.3425 13.8493 16.2841 13.8493C16.127 13.8493 15.9608 14.0479 15.9608 14.2327C15.9608 14.422 16.0372 14.5006 16.5356 14.8008L16.9039 15.0271V15.3642V15.706L16.7377 15.5997C16.6434 15.5443 16.5491 15.4797 16.5222 15.4566C16.4413 15.3827 16.1449 15.415 16.0506 15.512C15.9563 15.609 15.9294 15.8538 16.0012 15.9692C16.0237 16.0062 16.2303 16.154 16.4638 16.2971L16.8814 16.5558L16.8949 17.4102L16.9039 18.2646L16.4997 18.32C14.5552 18.5925 12.9026 20.0658 12.3502 22.0287C12.0718 23.0263 12.0763 24.0654 12.3727 25.0861C12.4939 25.5064 12.9205 26.37 13.1047 26.5732C13.2888 26.7718 13.4864 26.7903 13.648 26.6194C13.8052 26.4624 13.7873 26.3008 13.5807 25.9775C13.1496 25.2893 12.9205 24.5596 12.8756 23.7098C12.7678 21.5206 14.2588 19.5532 16.3785 19.0913C16.9308 18.9666 16.9039 18.9435 16.9039 19.507V19.9919H16.7781C16.5581 19.9919 15.9967 20.1767 15.6465 20.366C14.8336 20.8002 14.2633 21.4975 13.9579 22.4166C13.7828 22.9477 13.7558 23.7791 13.8905 24.3333C14.2274 25.7142 15.2243 26.7026 16.5581 26.9981C17.0521 27.1044 17.8559 27.0628 18.3185 26.9012C19.4457 26.5086 20.272 25.6218 20.5863 24.4626C20.9815 22.9985 20.4157 21.419 19.1807 20.5508C18.79 20.2783 18.049 19.9919 17.7212 19.9919C17.6269 19.9919 17.6224 19.9734 17.6224 19.5024V19.0128L17.8739 19.0451C18.2736 19.0959 18.7406 19.2437 19.1807 19.4654C19.4098 19.5763 19.6343 19.6686 19.6837 19.6686C19.7286 19.6686 19.8184 19.6271 19.8858 19.5716C20.043 19.4469 20.0474 19.1744 19.9037 19.0359C19.6208 18.7726 18.6778 18.4124 18.0356 18.32L17.6224 18.2646V17.4056V16.5512L18.0086 16.3202C18.5655 15.9877 18.6733 15.8076 18.4712 15.5397C18.3499 15.3827 18.1164 15.3781 17.8694 15.5351C17.7706 15.5951 17.6763 15.6506 17.6583 15.6506C17.6359 15.6506 17.6224 15.5074 17.6224 15.3319V15.0132L18.0535 14.75C18.3454 14.5698 18.4936 14.4497 18.5251 14.3666C18.6059 14.1449 18.4936 13.9232 18.2601 13.8632C18.1703 13.8401 18.076 13.8724 17.8784 13.9833L17.6179 14.1311L17.6314 13.7985L17.6449 13.4614L18.0041 13.2397C18.4577 12.9626 18.5834 12.824 18.5475 12.6301C18.534 12.5516 18.4757 12.45 18.4263 12.4038C18.2646 12.2698 18.0805 12.3114 17.6538 12.5746L17.2542 12.824L16.8455 12.5746C16.3874 12.2929 16.2123 12.2606 16.0596 12.4315ZM16.9039 21.2158C16.9039 21.6453 16.8949 21.7008 16.8275 21.7008C16.6569 21.7008 16.1719 21.9825 15.9608 22.2088C15.1031 23.1186 15.3725 24.6658 16.4907 25.2016C16.7198 25.3124 16.7961 25.3263 17.2631 25.3263C17.7392 25.3263 17.802 25.317 18.0401 25.1969C18.9876 24.7166 19.3424 23.4881 18.8035 22.5459C18.6373 22.255 18.2466 21.9086 17.9592 21.7977C17.82 21.7423 17.6898 21.7008 17.6673 21.7008C17.6404 21.7008 17.6224 21.4975 17.6224 21.2158C17.6224 20.6477 17.5955 20.6662 18.1389 20.8602C18.5745 21.0172 18.9652 21.2805 19.2705 21.6269C19.5579 21.9502 19.7017 22.1996 19.8454 22.6429C20.0744 23.3496 20.0295 24.07 19.7151 24.7259C18.8664 26.4855 16.6704 26.8642 15.3321 25.4879C14.7932 24.9337 14.5238 24.2779 14.5238 23.5251C14.5282 22.2827 15.2962 21.202 16.4548 20.8186C16.9129 20.6662 16.9039 20.657 16.9039 21.2158ZM17.0027 23.7652C17.1239 23.8991 17.3485 23.9038 17.4922 23.7837C17.5955 23.7006 17.6 23.659 17.6134 23.0909C17.6224 22.7584 17.6404 22.4859 17.6494 22.4859C17.7122 22.4859 17.9278 22.6337 18.0356 22.7491C18.5385 23.2941 18.3858 24.167 17.7302 24.4996C17.3125 24.712 16.8814 24.652 16.5311 24.3379C16.0147 23.8714 16.0776 22.9985 16.6569 22.5875L16.8814 22.4305L16.8949 23.0447C16.9039 23.5989 16.9174 23.6728 17.0027 23.7652Z" fill="white"/>
<path d="M20.5952 20.0196C20.5234 20.0704 20.4964 20.1351 20.4964 20.269C20.4964 20.4168 20.5414 20.5092 20.7479 20.7863C21.9694 22.4397 21.9335 24.7074 20.6581 26.3423C20.0653 27.1044 19.1896 27.6724 18.2241 27.9218C17.7436 28.0419 16.7287 28.0327 16.2167 27.8987C15.7631 27.7833 15.2557 27.5524 14.856 27.2891C14.5416 27.0767 14.3845 27.0582 14.2318 27.2198C14.0611 27.3907 14.0836 27.5893 14.2812 27.7833C14.5012 27.9957 15.4488 28.4668 15.8934 28.5777C17.7346 29.058 19.5713 28.5638 20.8512 27.2475C21.8437 26.2269 22.3512 24.9522 22.3512 23.502C22.3512 22.6106 22.1625 21.8162 21.7718 21.0588C21.5473 20.62 21.1566 20.0612 21.0353 19.9919C20.9096 19.9226 20.7075 19.9365 20.5952 20.0196Z" fill="white"/>
<path d="M9.11676 23.2295C9.00449 23.3218 9 23.3449 9 23.7698C9 24.6981 9.07634 24.906 9.41315 24.8783C9.54788 24.869 9.61973 24.8321 9.6826 24.7489C9.75895 24.6427 9.75895 24.5827 9.72302 23.9869C9.6826 23.3726 9.67362 23.3357 9.56135 23.2387C9.41315 23.1048 9.26945 23.1048 9.11676 23.2295Z" fill="white"/>
<path d="M24.7762 25.003C24.7223 25.04 24.6594 25.1416 24.637 25.2247C24.61 25.3032 24.5247 25.5942 24.4484 25.8667C24.3181 26.3008 24.3092 26.3747 24.3541 26.4994C24.4304 26.6841 24.628 26.7534 24.8301 26.6703C24.9603 26.6149 24.9918 26.5641 25.0906 26.2408C25.3106 25.5526 25.36 25.3032 25.2971 25.1554C25.2118 24.9476 24.9603 24.8737 24.7762 25.003Z" fill="white"/>
<path d="M9.64224 25.9036C9.38626 26.0098 9.39524 26.2869 9.67816 26.9474C9.9027 27.4739 10.015 27.6124 10.2126 27.6124C10.3787 27.6124 10.5718 27.4323 10.5718 27.2845C10.5718 27.1506 10.1362 26.0883 10.0374 25.9867C9.94312 25.8897 9.76798 25.8482 9.64224 25.9036Z" fill="white"/>
<path d="M23.6759 27.6448C23.5592 27.7834 23.0113 28.5408 22.9664 28.6286C22.899 28.7625 22.9125 28.8826 23.0158 29.0165C23.0832 29.1089 23.146 29.1366 23.2763 29.1366C23.4739 29.1366 23.6265 28.9888 24.0172 28.4254C24.2957 28.0189 24.3361 27.8388 24.1789 27.6679C24.0622 27.5386 23.7747 27.5294 23.6759 27.6448Z" fill="white"/>
<path d="M10.8907 28.4715C10.72 28.6978 10.7604 28.8178 11.1646 29.2797C11.3667 29.5106 11.5912 29.7415 11.6676 29.7923C11.9235 29.954 12.2334 29.797 12.2334 29.4968C12.2334 29.3859 12.1436 29.2612 11.7753 28.8548C11.3532 28.3883 11.3083 28.3514 11.1511 28.3514C11.0209 28.3514 10.9625 28.3791 10.8907 28.4715Z" fill="white"/>
<path d="M21.664 29.8062C21.5518 29.894 21.3407 30.0417 21.1925 30.1341C21.0443 30.2265 20.8961 30.3373 20.8692 30.3743C20.7793 30.4851 20.7973 30.7253 20.9006 30.8361C21.0937 31.0486 21.4036 30.9377 22.1086 30.4066C22.3691 30.208 22.3826 30.1895 22.3826 30.0002C22.3826 29.6076 22.0368 29.5199 21.664 29.8062Z" fill="white"/>
<path d="M13.1315 30.185C12.898 30.2728 12.8216 30.6191 12.9968 30.7993C13.1001 30.9055 14.0656 31.3997 14.1734 31.3997C14.4249 31.3997 14.6135 31.1456 14.5371 30.9055C14.5012 30.7993 14.3934 30.7207 13.8905 30.4667C13.2842 30.1527 13.2528 30.1388 13.1315 30.185Z" fill="white"/>
<path d="M18.9921 31.0578C18.7451 31.1224 18.4981 31.1825 18.4397 31.1963C18.296 31.2287 18.1837 31.4873 18.2376 31.6582C18.314 31.8983 18.4532 31.9399 18.9157 31.8475C19.4367 31.7459 19.8274 31.612 19.8992 31.5104C19.9935 31.3764 19.9711 31.1501 19.8543 31.0393C19.7241 30.91 19.5759 30.9146 18.9921 31.0578Z" fill="white"/>
<path d="M15.5655 31.2841C15.3859 31.5151 15.4802 31.8199 15.7451 31.8845C15.9697 31.9353 16.567 32 16.796 32C17.1014 32 17.2181 31.8984 17.2181 31.6398C17.2181 31.3165 17.1642 31.298 16.0011 31.1871C15.6688 31.1594 15.6598 31.1594 15.5655 31.2841Z" fill="white"/>
</svg>
