<svg width="40" height="40" viewBox="0 0 40 40" fill="none" xmlns="http://www.w3.org/2000/svg">
<circle cx="20" cy="20" r="19" stroke="#F73E3E" stroke-width="2"/>
<path d="M25.6882 21.0751C26.9266 21.0751 27.9292 22.0784 27.9292 23.3168C27.9292 24.5552 26.9259 25.5585 25.6882 25.5585C24.4512 25.5585 23.4472 24.5552 23.4472 23.3168C23.4472 22.0784 24.4512 21.0751 25.6882 21.0751ZM25.6882 23.9941C26.0604 23.9941 26.3655 23.6904 26.3655 23.3175C26.3655 22.9446 26.0604 22.641 25.6882 22.641C25.3167 22.641 25.0123 22.9446 25.0123 23.3175C25.0123 23.6904 25.316 23.9941 25.6882 23.9941Z" fill="white"/>
<path d="M9.37013 21.4802L9.73675 18.4983C9.80881 17.926 10.3091 17.5062 10.8863 17.5377L11.6895 17.5824L14.1831 15.3358C14.4237 15.1196 14.7337 15.0007 15.0569 15.0007L20.1231 15C21.2601 15 22.3627 15.3883 23.2492 16.1006L26.0758 18.3716L29.8771 19.3218C30.3654 19.4435 30.7082 19.8829 30.7082 20.386V21.4816C30.8692 21.4809 31 21.6111 31 21.772V23.221C31 23.4274 30.8328 23.5946 30.6264 23.5946H28.4805C28.4896 23.5015 28.5085 23.4127 28.5085 23.3175C28.5085 21.7594 27.2463 20.4986 25.6889 20.4986C24.1315 20.4986 22.87 21.7594 22.87 23.3175C22.87 23.4134 22.8896 23.5022 22.8987 23.5946H16.9565C16.9649 23.5015 16.9838 23.4127 16.9838 23.3175C16.9838 21.7594 15.7216 20.4986 14.1649 20.4986C12.6067 20.4986 11.3467 21.7594 11.3467 23.3175C11.3467 23.4134 11.3648 23.5022 11.3746 23.5946H9.37293C9.16653 23.5946 9.00001 23.4274 9.00001 23.221V21.8545C8.99651 21.6488 9.16373 21.4802 9.37013 21.4802ZM16.8893 17.8161L23.9573 18.1736L22.6041 17.0857C21.8688 16.4945 20.955 16.1726 20.0112 16.1726H16.8893V17.8161ZM15.7153 17.7566V16.1733H15.2556C15.0961 16.1733 14.9429 16.2321 14.8246 16.3391L13.382 17.6377L15.7153 17.7566Z" fill="white"/>
<path d="M14.1635 21.0751C15.4019 21.0751 16.4045 22.0784 16.4045 23.3168C16.4045 24.5552 15.4012 25.5585 14.1635 25.5585C12.9259 25.5585 11.9225 24.5552 11.9225 23.3168C11.9225 22.0784 12.9259 21.0751 14.1635 21.0751ZM14.1635 23.9941C14.5365 23.9941 14.8401 23.6904 14.8401 23.3175C14.8401 22.9446 14.5365 22.641 14.1635 22.641C13.792 22.641 13.487 22.9446 13.487 23.3175C13.487 23.6904 13.7913 23.9941 14.1635 23.9941Z" fill="white"/>
</svg>
