<svg width="776" height="783" viewBox="0 0 776 783" fill="none" xmlns="http://www.w3.org/2000/svg">
<path d="M491.431 123.515C480.822 130.146 473.816 141.582 471.949 155.32C470.081 169.058 473.503 183.978 481.466 196.815L664.854 490.203C672.905 502.985 684.818 512.598 697.985 516.938C711.152 521.278 724.501 519.991 735.111 513.36C745.686 506.675 752.642 495.199 754.455 481.443C756.268 467.687 752.79 452.772 744.783 439.963L561.521 146.775C553.492 134.028 541.621 124.431 528.493 120.074C515.365 115.718 502.044 116.954 491.431 123.515Z" fill="url(#paint0_linear)"/>
<g style="mix-blend-mode:multiply" opacity="0.1">
<path d="M491.431 123.515L735.111 513.36C745.686 506.675 752.642 495.199 754.454 481.443C756.267 467.687 752.789 452.773 744.783 439.963L561.52 146.776C557.553 140.409 552.581 134.755 546.891 130.139C541.201 125.522 534.905 122.035 528.367 119.878C526.79 119.355 525.171 118.913 523.578 118.512C520.988 117.96 518.397 117.6 515.822 117.435C506.964 116.956 498.547 119.054 491.431 123.515Z" fill="black"/>
</g>
<path d="M529.264 184.041C544.143 174.741 551.118 155.905 550.403 132.988C541.7 124.944 531.313 119.698 520.724 117.997C510.134 116.295 499.883 118.227 491.431 123.515C482.965 128.817 476.74 137.217 473.647 147.513C470.554 157.809 470.751 169.474 474.211 180.838C494.331 191.401 514.385 193.342 529.264 184.041Z" fill="url(#paint1_linear)"/>
<path d="M697.177 452.673C682.298 461.973 675.323 480.809 676.038 503.726C684.737 511.814 695.136 517.102 705.747 518.833C716.357 520.563 726.636 518.647 735.111 513.36C743.577 508.058 749.802 499.658 752.895 489.362C755.988 479.065 755.791 467.401 752.331 456.037C732.044 445.355 712.023 443.393 697.177 452.673Z" fill="url(#paint2_linear)"/>
<path d="M299.915 106.176C289.277 112.826 282.264 124.306 280.418 138.09C278.573 151.874 282.047 166.833 290.076 179.678L534.936 571.411C542.993 584.185 554.905 593.79 568.069 598.128C581.233 602.467 594.58 601.187 605.193 594.568C615.805 587.934 622.814 576.497 624.688 562.758C626.561 549.018 623.147 534.093 615.191 521.247L370.33 129.513C366.353 123.15 361.376 117.498 355.683 112.881C349.991 108.264 343.696 104.772 337.156 102.605C330.617 100.438 323.962 99.6376 317.572 100.25C311.182 100.863 305.182 102.877 299.915 106.176Z" fill="url(#paint3_linear)"/>
<g style="mix-blend-mode:multiply" opacity="0.1">
<path d="M605.192 594.568C615.804 587.935 622.814 576.498 624.687 562.758C626.56 549.018 623.146 534.093 615.189 521.247L370.329 129.513C366.369 123.129 361.399 117.456 355.708 112.822C350.016 108.188 343.714 104.685 337.167 102.515C330.62 100.345 323.957 99.5515 317.563 100.18C311.169 100.808 305.171 102.846 299.914 106.176L605.192 594.568Z" fill="black"/>
</g>
<path d="M337.848 166.863C352.761 157.542 359.735 138.706 358.963 115.77C350.277 107.656 339.874 102.353 329.26 100.629C318.645 98.9041 308.368 100.847 299.915 106.176C291.431 111.445 285.192 119.832 282.099 130.124C279.005 140.417 279.216 152.083 282.702 163.438C303.04 174.201 322.836 176.247 337.848 166.863Z" fill="url(#paint4_linear)"/>
<path d="M567.259 533.881C552.38 543.181 545.405 562.017 546.153 584.913C554.844 593.002 565.236 598.293 575.841 600.027C586.446 601.761 596.721 599.85 605.193 594.568C613.697 589.286 619.956 580.885 623.068 570.573C626.18 560.261 625.986 548.57 622.513 537.183C602.026 526.625 582.205 524.539 567.259 533.881Z" fill="url(#paint5_linear)"/>
<path d="M301.901 309.167C285.182 282.42 253.671 271.963 231.519 285.81C209.366 299.657 204.961 332.564 221.68 359.311L404.917 652.458C421.635 679.205 453.146 689.662 475.299 675.816C497.451 661.969 501.856 629.061 485.138 602.315L301.901 309.167Z" fill="url(#paint6_linear)"/>
<g style="mix-blend-mode:multiply" opacity="0.1">
<path d="M273.512 284.043C270.372 282.651 267.163 281.586 263.933 280.864C262.324 280.496 260.712 280.216 259.104 280.026C249.114 278.759 239.508 280.752 231.527 285.749L475.207 675.594C485.773 668.901 492.722 657.424 494.534 643.672C496.346 629.92 492.875 615.009 484.879 602.197L301.717 309.171C294.769 297.941 284.797 289.057 273.512 284.043Z" fill="black"/>
</g>
<path d="M269.46 346.436C284.34 337.135 291.314 318.3 290.566 295.404C281.871 287.359 271.491 282.11 260.907 280.405C250.323 278.7 240.076 280.627 231.627 285.91C223.133 291.17 216.872 299.541 213.742 309.821C210.613 320.101 210.775 331.763 214.207 343.134C234.693 353.691 254.515 355.778 269.46 346.436Z" fill="url(#paint7_linear)"/>
<path d="M437.374 615.068C422.461 624.389 415.487 643.225 416.234 666.121C424.931 674.215 435.331 679.507 445.943 681.238C456.556 682.969 466.835 681.049 475.307 675.755C483.768 670.453 489.987 662.055 493.074 651.762C496.161 641.469 495.958 629.81 492.495 618.453C472.207 607.771 452.386 605.684 437.374 615.068Z" fill="url(#paint8_linear)"/>
<path d="M157.505 456.38C152.234 459.674 147.8 464.19 144.454 469.67C141.108 475.149 138.917 481.485 138.005 488.315C137.094 495.145 137.48 502.334 139.142 509.473C140.804 516.613 143.709 523.561 147.691 529.921L275.133 733.806C283.183 746.588 295.096 756.201 308.263 760.541C321.431 764.881 334.78 763.594 345.389 756.963C355.965 750.278 362.921 738.802 364.733 725.046C366.546 711.29 363.069 696.375 355.062 683.566L227.745 479.882C219.743 467.06 207.857 457.386 194.691 452.981C181.525 448.576 168.153 449.798 157.505 456.38Z" fill="url(#paint9_linear)"/>
<g style="mix-blend-mode:multiply" opacity="0.1">
<path d="M221.007 470.512C215.538 464.41 209.108 459.451 202.151 455.972C200.431 455.147 198.737 454.361 196.943 453.638C195.148 452.916 193.797 452.531 192.178 452.089C190.734 451.667 189.284 451.324 187.832 451.061C176.876 449.001 166.204 450.842 157.453 456.3L345.388 756.963C355.964 750.279 362.919 738.802 364.732 725.047C366.545 711.291 363.067 696.376 355.06 683.567L227.744 479.883C225.76 476.571 223.503 473.431 221.007 470.512Z" fill="black"/>
</g>
<path d="M195.463 517.107C210.343 507.807 217.317 488.971 216.578 466.014C207.878 457.926 197.479 452.638 186.869 450.908C176.258 449.177 165.98 451.093 157.505 456.38C149.034 461.677 142.805 470.076 139.711 480.374C136.618 490.671 136.818 502.339 140.284 513.703C160.597 524.425 180.618 526.387 195.463 517.107Z" fill="url(#paint10_linear)"/>
<path d="M307.456 696.276C292.576 705.576 285.602 724.412 286.316 747.329C295.016 755.417 305.415 760.705 316.025 762.435C326.636 764.166 336.914 762.25 345.389 756.963C353.855 751.661 360.08 743.26 363.173 732.964C366.266 722.668 366.069 711.004 362.61 699.64C342.389 688.916 322.335 686.975 307.456 696.276Z" fill="url(#paint11_linear)"/>
<defs>
<linearGradient id="paint0_linear" x1="503.841" y1="143.369" x2="804.27" y2="624.003" gradientUnits="userSpaceOnUse">
<stop stop-color="#7581D4"/>
<stop offset="0.99" stop-color="#6247B0"/>
</linearGradient>
<linearGradient id="paint1_linear" x1="495.852" y1="130.588" x2="627.389" y2="341.024" gradientUnits="userSpaceOnUse">
<stop offset="0.01" stop-color="#808DE8"/>
<stop offset="1" stop-color="#6E6BC7"/>
</linearGradient>
<linearGradient id="paint2_linear" x1="761.338" y1="555.319" x2="699.639" y2="456.612" gradientUnits="userSpaceOnUse">
<stop stop-color="#7581D4"/>
<stop offset="0.99" stop-color="#5B498F"/>
</linearGradient>
<linearGradient id="paint3_linear" x1="348.45" y1="183.824" x2="618.959" y2="616.592" gradientUnits="userSpaceOnUse">
<stop stop-color="#338BA8"/>
<stop offset="1" stop-color="#3360A8"/>
</linearGradient>
<linearGradient id="paint4_linear" x1="304.009" y1="112.727" x2="505.209" y2="434.611" gradientUnits="userSpaceOnUse">
<stop stop-color="#41AED4"/>
<stop offset="1" stop-color="#3360A8"/>
</linearGradient>
<linearGradient id="paint5_linear" x1="644.508" y1="657.466" x2="568.49" y2="535.85" gradientUnits="userSpaceOnUse">
<stop stop-color="#338BA8"/>
<stop offset="1" stop-color="#244478"/>
</linearGradient>
<linearGradient id="paint6_linear" x1="273.153" y1="352.344" x2="472.343" y2="671.012" gradientUnits="userSpaceOnUse">
<stop stop-color="#5EC2CC"/>
<stop offset="1" stop-color="#338BA8"/>
</linearGradient>
<linearGradient id="paint7_linear" x1="240.294" y1="299.775" x2="345.051" y2="467.368" gradientUnits="userSpaceOnUse">
<stop stop-color="#6FDBE8"/>
<stop offset="1" stop-color="#338BA8"/>
</linearGradient>
<linearGradient id="paint8_linear" x1="517.261" y1="742.873" x2="446.593" y2="629.818" gradientUnits="userSpaceOnUse">
<stop stop-color="#5EC2CC"/>
<stop offset="1" stop-color="#2A728A"/>
</linearGradient>
<linearGradient id="paint9_linear" x1="169.086" y1="474.908" x2="349.986" y2="764.317" gradientUnits="userSpaceOnUse">
<stop stop-color="#8CDBB3"/>
<stop offset="1" stop-color="#5EC2CC"/>
</linearGradient>
<linearGradient id="paint10_linear" x1="157.756" y1="456.782" x2="196.845" y2="519.318" gradientUnits="userSpaceOnUse">
<stop stop-color="#B5F7D6"/>
<stop offset="1" stop-color="#82D8D0"/>
</linearGradient>
<linearGradient id="paint11_linear" x1="376.339" y1="806.477" x2="313.209" y2="705.479" gradientUnits="userSpaceOnUse">
<stop stop-color="#8CDBB3"/>
<stop offset="1" stop-color="#449DA6"/>
</linearGradient>
</defs>
</svg>
