<svg width="14" height="23" viewBox="0 0 14 23" fill="none" xmlns="http://www.w3.org/2000/svg">
<path d="M13.92 15.416C13.92 16.68 13.44 17.752 12.48 18.632C11.536 19.512 10.16 20.024 8.352 20.168V22.88H6.816V20.168C5.648 20.104 4.536 19.888 3.48 19.52C2.44 19.136 1.608 18.656 0.984 18.08L1.872 16.208C2.448 16.736 3.176 17.176 4.056 17.528C4.936 17.864 5.856 18.064 6.816 18.128V12.56C5.696 12.288 4.76 11.992 4.008 11.672C3.272 11.352 2.648 10.88 2.136 10.256C1.64 9.632 1.392 8.816 1.392 7.808C1.392 6.544 1.848 5.472 2.76 4.592C3.688 3.712 5.04 3.2 6.816 3.056V0.319999H8.352V3.032C9.264 3.064 10.144 3.208 10.992 3.464C11.856 3.72 12.6 4.064 13.224 4.496L12.432 6.416C11.136 5.6 9.776 5.152 8.352 5.072V10.664C9.52 10.952 10.48 11.256 11.232 11.576C11.984 11.88 12.616 12.344 13.128 12.968C13.656 13.576 13.92 14.392 13.92 15.416ZM3.744 7.712C3.744 8.4 4.008 8.936 4.536 9.32C5.064 9.704 5.824 10.024 6.816 10.28V5.096C5.792 5.224 5.024 5.528 4.512 6.008C4 6.472 3.744 7.04 3.744 7.712ZM8.352 18.104C9.424 18.008 10.224 17.736 10.752 17.288C11.296 16.824 11.568 16.248 11.568 15.56C11.568 14.856 11.288 14.32 10.728 13.952C10.184 13.568 9.392 13.232 8.352 12.944V18.104Z" fill="white"/>
</svg>
