<svg width="40" height="40" viewBox="0 0 40 40" fill="none" xmlns="http://www.w3.org/2000/svg">
<circle cx="20" cy="20" r="19" stroke="#3EF7CA" stroke-width="2"/>
<path d="M20.0613 9.75616C17.0793 10.2202 14.6344 12.3042 13.7148 15.1659C13.1906 16.803 13.2121 18.5132 13.775 20.1804C13.8781 20.4855 13.9555 20.7304 13.9512 20.7304C13.9469 20.7304 13.7019 20.6831 13.4098 20.623C12.718 20.4769 12.5719 20.4769 12.4473 20.6058C12.357 20.7046 11.3516 23.1581 11.3516 23.287C11.3516 23.4804 11.5363 23.6523 11.7512 23.6523C11.8027 23.6523 12.1508 23.4503 12.5203 23.2011C12.8941 22.9519 13.225 22.7499 13.2551 22.7499C13.4355 22.7499 13.7191 22.9003 13.9254 23.1108L14.1488 23.3386L13.775 23.4116C13.2336 23.5191 12.5117 23.764 12.2238 23.9401C11.6008 24.314 11.1539 24.7866 10.8574 25.3796C10.518 26.0714 10.6383 26.4066 11.1883 26.3077C11.3043 26.2862 11.416 26.2733 11.4332 26.2819C11.4547 26.2905 11.2828 26.6214 11.0594 27.0253C10.6168 27.8116 10.5652 27.9835 10.7242 28.1597C10.8832 28.3358 11.0809 28.2843 11.7727 27.9019C12.1207 27.7085 12.4644 27.5151 12.5375 27.4679L12.675 27.3905L12.6363 27.5495C12.4859 28.2026 12.7609 28.4132 13.3883 28.1253C14.1703 27.773 14.8363 27.0726 15.1629 26.2733C15.2531 26.0499 15.4508 25.3151 15.541 24.8812L15.5668 24.7566L15.8031 24.9886C15.9707 25.1562 16.0566 25.2808 16.1082 25.4398L16.1769 25.6546L15.7172 26.3464C15.3477 26.905 15.2617 27.064 15.2617 27.1886C15.2617 27.3991 15.382 27.5194 15.5969 27.5194C15.8031 27.5194 18.218 26.5612 18.3254 26.4366C18.4242 26.3206 18.4199 26.1659 18.291 25.5429C18.2309 25.2507 18.1836 24.9929 18.1836 24.9628C18.1836 24.9284 18.3254 24.9628 18.5961 25.0573C19.507 25.3753 20.2633 25.4999 21.243 25.4999C22.0379 25.4999 22.459 25.4526 23.1551 25.2851C25.6387 24.6878 27.6797 22.9046 28.6379 20.4898C29.2309 19.0073 29.3426 17.2198 28.943 15.6386C28.1566 12.5405 25.5957 10.2288 22.416 9.75186C21.8789 9.67022 20.5855 9.67452 20.0613 9.75616ZM22.6781 10.5425C23.4172 10.6929 24.3066 11.0366 24.8996 11.389C26.7 12.4761 27.9203 14.2077 28.3328 16.2702C28.4703 16.9663 28.4703 18.2683 28.3328 18.9257C27.7098 21.8605 25.5871 24.0175 22.7082 24.6448C22.3945 24.7136 22.0766 24.7394 21.4707 24.7566C20.7617 24.7737 20.5812 24.7651 20.0957 24.6835C19.2793 24.546 17.9687 24.0905 17.9687 23.9444C17.9687 23.9144 18.1793 23.678 18.4328 23.4245L18.8969 22.9605L19.0988 23.0464C19.941 23.4073 21.2687 23.5448 22.2699 23.373C23.4945 23.1624 24.6246 22.5523 25.5141 21.6241C26.2918 20.8034 26.7687 19.8839 27.0223 18.7108C27.1297 18.1995 27.1297 16.9878 27.0223 16.4765C26.7687 15.2991 26.2961 14.3882 25.5141 13.5632C24.6547 12.6651 23.5719 12.0679 22.373 11.8316C21.909 11.7413 20.5383 11.7499 20.0742 11.8487C18.9828 12.0851 18.016 12.5878 17.2168 13.3483C16.3531 14.1648 15.743 15.2819 15.5023 16.4851C15.2961 17.4948 15.4121 18.771 15.7988 19.7421L15.9062 20.0214L15.4379 20.4898C15.1328 20.7948 14.9523 20.9452 14.918 20.9237C14.8449 20.8765 14.6 20.3394 14.4496 19.8839C13.7363 17.7569 14.0371 15.4796 15.2832 13.6191C16.5207 11.7671 18.5617 10.5683 20.7273 10.4265C21.3332 10.3835 22.1582 10.4351 22.6781 10.5425ZM22.141 12.5448C23.9801 12.8671 25.557 14.2292 26.1285 15.9952C26.3176 16.5796 26.3691 16.9148 26.3691 17.5937C26.3691 18.2726 26.3176 18.6077 26.1285 19.1921C25.6387 20.7089 24.3754 21.9722 22.8543 22.4663C21.8445 22.7972 20.693 22.8015 19.7305 22.4878C19.5758 22.4362 19.4469 22.389 19.4383 22.3847C19.4297 22.3761 19.5371 22.2128 19.6789 22.0151C19.8207 21.8175 19.9883 21.564 20.0527 21.448C20.1172 21.3362 20.1816 21.246 20.1945 21.246C20.2117 21.2503 20.3406 21.2761 20.4824 21.3105C20.6328 21.3491 20.9551 21.3749 21.2559 21.3749C22.2957 21.3749 23.1379 21.0441 23.8727 20.3437C24.7062 19.5487 25.1102 18.539 25.0457 17.3874C24.9898 16.3819 24.6031 15.5398 23.8684 14.8394C23.1336 14.139 22.3043 13.8124 21.2559 13.8124C20.2074 13.8124 19.348 14.1562 18.6004 14.8823C17.7195 15.7288 17.3027 17.0179 17.5133 18.221C17.5477 18.4358 17.5906 18.6421 17.6035 18.6765C17.6207 18.7194 17.5176 18.8097 17.2512 18.9816C17.0406 19.1148 16.7957 19.2823 16.7055 19.3511C16.6152 19.4241 16.525 19.4843 16.5121 19.4843C16.4949 19.4843 16.4391 19.3554 16.3875 19.1921C15.8375 17.4776 16.1812 15.7073 17.3457 14.2851C17.6293 13.937 18.2609 13.4085 18.6777 13.1679C19.2277 12.8585 19.9883 12.5835 20.5254 12.5105C20.8519 12.4675 21.8102 12.4847 22.141 12.5448ZM21.9562 14.6073C22.9875 14.8523 23.8168 15.6171 24.182 16.6698C24.2937 16.9792 24.3023 17.0694 24.3023 17.5937C24.3066 18.1351 24.2937 18.1995 24.1691 18.5519C24.0961 18.7581 23.9715 19.0331 23.8941 19.1663C23.3441 20.0687 22.3473 20.6444 21.3074 20.6487C20.925 20.653 20.5555 20.6101 20.5254 20.5585C20.5125 20.5413 20.5512 20.4124 20.607 20.2749C20.6629 20.1331 20.7531 19.8624 20.8047 19.6691L20.9035 19.321L21.316 19.3038C21.6727 19.2909 21.7672 19.2737 22.0164 19.1534C22.3773 18.9816 22.6652 18.6937 22.8414 18.3241C22.966 18.0663 22.9746 18.0105 22.9746 17.5937C22.9746 17.1683 22.966 17.121 22.8328 16.8546C22.6523 16.4851 22.3644 16.1972 22.0078 16.0296C21.75 15.905 21.6941 15.8964 21.2559 15.8964C20.8305 15.8964 20.7574 15.9093 20.534 16.0124C19.8766 16.3218 19.4641 17.0308 19.5285 17.7441L19.5543 18.0062L19.2664 18.0835C19.1074 18.1265 18.8324 18.2167 18.6562 18.2855C18.4801 18.3542 18.3211 18.3929 18.3039 18.3757C18.2394 18.3112 18.175 17.6882 18.2008 17.3702C18.3125 16.0253 19.2922 14.8952 20.6113 14.5901C20.8863 14.5257 21.6555 14.5386 21.9562 14.6073ZM21.634 16.6612C21.9906 16.8116 22.2656 17.2198 22.2656 17.5937C22.2656 18.0749 21.8402 18.5519 21.3848 18.5819C21.0582 18.6034 21.0625 18.6077 21.0625 18.3069C21.0625 17.8987 20.9894 17.8257 20.5941 17.8386C20.3019 17.8515 20.2891 17.8472 20.2633 17.7441C20.1773 17.4046 20.4266 16.9191 20.7832 16.7257C21.0281 16.5925 21.3977 16.5624 21.634 16.6612ZM20.2891 18.6421C20.2891 18.8054 19.9582 19.9913 19.868 20.146C19.8508 20.1761 18.7422 19.1062 18.7422 19.0546C18.7422 19.0202 19.2449 18.8483 19.6875 18.7366C20.0742 18.6335 20.2891 18.6034 20.2891 18.6421ZM19.3523 21.1687C18.9914 21.7444 18.5789 22.23 17.5004 23.3214L16.3617 24.473L16.1984 24.3097L16.0352 24.1464L16.25 23.5019C16.366 23.1495 16.4648 22.8144 16.4648 22.7585C16.4648 22.6124 16.2801 22.4491 16.1125 22.4491C16.0352 22.4491 15.6957 22.5394 15.3605 22.6511L14.7461 22.8573L14.5957 22.7026L14.4453 22.5523L15.6355 21.3706C16.843 20.1718 17.118 19.9355 17.6766 19.5874L17.9902 19.3983L18.7465 20.1546L19.507 20.9151L19.3523 21.1687ZM13.659 21.4265L14.3637 21.564L14.0844 21.8433L13.8051 22.1183L13.4871 22.0237C13.1305 21.9206 13.1047 21.9249 12.7566 22.1569L12.5117 22.3245L12.6019 22.0968C12.6535 21.9722 12.7437 21.7401 12.8082 21.5769C12.8684 21.4179 12.9285 21.289 12.9371 21.289C12.95 21.289 13.2723 21.3491 13.659 21.4265ZM15.4164 23.6823L15.3219 23.9745L14.9352 24.1765C14.7246 24.2839 14.5484 24.3698 14.5398 24.3612C14.5312 24.3526 14.6129 24.1765 14.716 23.9659L14.9094 23.5878L15.1801 23.4933C15.3305 23.4417 15.468 23.3987 15.4852 23.3987C15.5023 23.3944 15.4723 23.5233 15.4164 23.6823ZM13.7578 24.1894C13.7578 24.2023 13.6676 24.3913 13.5602 24.6105C13.3152 25.096 13.2766 25.2163 13.3324 25.3581C13.4441 25.6589 13.6633 25.6546 14.282 25.3452C14.5441 25.2163 14.7461 25.1347 14.7332 25.1648C14.7246 25.1991 14.6687 25.3796 14.6172 25.5644C14.5012 25.9812 14.2949 26.398 14.0672 26.6901C13.891 26.9093 13.5129 27.2444 13.4785 27.2101C13.4699 27.2015 13.4828 27.0769 13.5086 26.9308C13.5344 26.789 13.543 26.6214 13.5258 26.5612C13.5 26.4452 13.3109 26.3163 13.1691 26.3163C13.1262 26.3163 12.8512 26.4495 12.5547 26.6128C12.2582 26.7761 12.0133 26.905 12.0047 26.8964C11.9961 26.8878 12.1164 26.6515 12.2711 26.3722C12.5848 25.805 12.6277 25.6159 12.4644 25.4526C12.3828 25.371 12.3398 25.3624 12.1078 25.3839C11.9617 25.3968 11.8113 25.4226 11.7684 25.4355C11.6137 25.4956 11.7039 25.3581 12.0305 25.0316C12.4 24.6577 12.7695 24.4472 13.3539 24.2753C13.7277 24.1636 13.7578 24.1593 13.7578 24.1894ZM17.4703 25.2206C17.5348 25.5515 17.5906 25.8566 17.5949 25.8995C17.6035 25.964 17.5047 26.0198 17.1352 26.1702C16.8773 26.2733 16.6582 26.3507 16.6453 26.3421C16.6367 26.3292 16.6969 26.2218 16.7828 26.0929C16.9633 25.8308 16.9719 25.7062 16.8516 25.3495L16.7656 25.096L17.032 24.8253C17.1781 24.6749 17.3113 24.5718 17.3285 24.589C17.3414 24.6062 17.4059 24.8898 17.4703 25.2206Z" fill="white"/>
<path d="M17.1266 20.3781C16.4734 20.6874 16.3058 21.5554 16.8 22.0753C17.2769 22.5824 18.175 22.4535 18.4887 21.839C18.7508 21.3234 18.5445 20.6617 18.0375 20.3996C17.8269 20.2921 17.3371 20.2792 17.1266 20.3781ZM17.7754 21.1386C17.8957 21.2546 17.9043 21.3191 17.8355 21.4781C17.6937 21.7831 17.2383 21.6671 17.2383 21.3277C17.2383 21.2074 17.4273 21.0312 17.5605 21.0312C17.6207 21.0312 17.7195 21.0785 17.7754 21.1386Z" fill="white"/>
<path d="M9.96797 22.3117C9.39219 22.8832 9.375 22.909 9.375 23.0852C9.375 23.3258 9.48672 23.4375 9.72734 23.4375C9.90352 23.4375 9.9293 23.4203 10.5008 22.8445C11.0766 22.273 11.0938 22.2473 11.0938 22.0711C11.0938 21.8305 10.982 21.7187 10.7414 21.7187C10.5652 21.7187 10.5395 21.7359 9.96797 22.3117Z" fill="white"/>
<path d="M9.62422 24.3742C8.70039 25.298 8.6875 25.3109 8.6875 25.4914C8.6875 25.732 8.79922 25.8438 9.03984 25.8438C9.22031 25.8438 9.2332 25.8309 10.157 24.907C11.0809 23.9832 11.0938 23.9703 11.0938 23.7898C11.0938 23.5492 10.982 23.4375 10.7414 23.4375C10.5609 23.4375 10.548 23.4504 9.62422 24.3742Z" fill="white"/>
<path d="M9.99805 26.7848C9.95078 26.8063 9.6457 27.0941 9.32344 27.4207C8.80781 27.9406 8.73047 28.0395 8.73047 28.1598C8.73047 28.3531 8.89375 28.5078 9.1043 28.5078C9.25469 28.5078 9.30625 28.4648 9.87773 27.8934C10.4105 27.3648 10.4922 27.2617 10.4922 27.1457C10.4922 26.8965 10.2129 26.6945 9.99805 26.7848Z" fill="white"/>
<path d="M16.1555 27.8117C15.5797 28.3832 15.5625 28.409 15.5625 28.5852C15.5625 28.8258 15.6742 28.9375 15.9148 28.9375C16.091 28.9375 16.1168 28.9203 16.6883 28.3445C17.2641 27.773 17.2813 27.7473 17.2813 27.5711C17.2813 27.4465 17.2555 27.3648 17.1953 27.3047C17.1352 27.2445 17.0535 27.2187 16.9289 27.2187C16.7527 27.2187 16.727 27.2359 16.1555 27.8117Z" fill="white"/>
<path d="M13.4055 28.843C12.4816 29.7668 12.4688 29.7797 12.4688 29.9602C12.4688 30.2008 12.5805 30.3125 12.8211 30.3125C13.0016 30.3125 13.0145 30.2996 13.9383 29.3758C14.8621 28.452 14.875 28.4391 14.875 28.2586C14.875 28.018 14.7633 27.9062 14.5227 27.9062C14.3422 27.9062 14.3293 27.9191 13.4055 28.843Z" fill="white"/>
<path d="M10.8273 29.0148C10.0797 29.7625 10.0625 29.7797 10.0625 29.9602C10.0625 30.2008 10.1742 30.3125 10.4148 30.3125C10.5953 30.3125 10.6125 30.2953 11.3602 29.5477C12.1078 28.8 12.125 28.7828 12.125 28.6023C12.125 28.3617 12.0133 28.25 11.7727 28.25C11.5922 28.25 11.575 28.2672 10.8273 29.0148Z" fill="white"/>
</svg>
