<svg width="24" height="24" viewBox="0 0 24 24" fill="none" xmlns="http://www.w3.org/2000/svg">
<g clip-path="url(#clip0)">
<path d="M21.9491 19.0837C21.9151 18.6691 21.8464 18.2168 21.7452 17.7392C21.643 17.258 21.5115 16.8031 21.354 16.3874C21.1911 15.9577 20.9701 15.5333 20.6965 15.1267C20.4128 14.7046 20.0794 14.337 19.7054 14.0346C19.3142 13.7182 18.8352 13.4638 18.2814 13.2783C17.7295 13.0937 17.1178 13.0002 16.4636 13.0002C16.2066 13.0002 15.9581 13.0893 15.4782 13.3534C15.1829 13.5162 14.8374 13.7046 14.4518 13.9128C14.1221 14.0904 13.6754 14.2568 13.1237 14.4075C12.5854 14.5547 12.0389 14.6294 11.4992 14.6294C10.96 14.6294 10.4135 14.5547 9.87479 14.4075C9.32365 14.257 8.87678 14.0906 8.54763 13.913C8.16566 13.7067 7.82 13.5184 7.52023 13.3533C7.04071 13.0891 6.79222 13 6.53527 13C5.88081 13 5.26936 13.0937 4.71764 13.2784C4.16419 13.4636 3.68506 13.718 3.2935 14.0348C2.91941 14.3374 2.58603 14.7047 2.30259 15.1267C2.02932 15.5333 1.80809 15.9575 1.64524 16.3875C1.48797 16.8033 1.35642 17.258 1.25426 17.7392C1.15286 18.2161 1.0843 18.6686 1.05031 19.0842C1.0169 19.4905 1 19.9134 1 20.3407C1 21.4514 1.41768 22.3506 2.24133 23.0138C3.05479 23.6682 4.13097 24 5.44008 24H17.5599C18.8686 24 19.9448 23.6682 20.7585 23.0138C21.5823 22.3511 22 21.4516 22 20.3405C21.9998 19.9118 21.9827 19.4889 21.9491 19.0837ZM19.7415 22.1104C19.2039 22.5428 18.4903 22.7531 17.5597 22.7531H5.44008C4.50928 22.7531 3.79567 22.5428 3.25835 22.1105C2.73121 21.6863 2.47504 21.1073 2.47504 20.3407C2.47504 19.942 2.49059 19.5483 2.5217 19.1704C2.55204 18.7996 2.61407 18.3923 2.70606 17.9595C2.79689 17.532 2.9125 17.1309 3.04999 16.7678C3.18192 16.4195 3.36186 16.0747 3.58501 15.7426C3.79798 15.426 4.04302 15.1544 4.3134 14.9356C4.56632 14.7309 4.8851 14.5633 5.26072 14.4377C5.60812 14.3214 5.99853 14.2578 6.42235 14.2482C6.47401 14.2714 6.566 14.3158 6.71502 14.3979C7.01824 14.565 7.36775 14.7555 7.75413 14.9642C8.18967 15.1989 8.7508 15.4109 9.4212 15.5939C10.1066 15.7812 10.8056 15.8763 11.4994 15.8763C12.1933 15.8763 12.8925 15.7812 13.5775 15.594C14.2484 15.4107 14.8094 15.1989 15.2455 14.9638C15.6409 14.7502 15.9806 14.5651 16.2838 14.3979C16.4329 14.3159 16.5248 14.2714 16.5765 14.2482C17.0005 14.2578 17.3909 14.3214 17.7385 14.4377C18.1139 14.5633 18.4327 14.731 18.6856 14.9356C18.956 15.1543 19.2011 15.4258 19.414 15.7427C19.6374 16.0747 19.8175 16.4197 19.9492 16.7676C20.0869 17.1312 20.2027 17.5322 20.2934 17.9593C20.3852 18.3929 20.4474 18.8004 20.4777 19.1705V19.1709C20.509 19.5473 20.5248 19.9408 20.525 20.3407C20.5248 21.1074 20.2686 21.6863 19.7415 22.1104Z" fill="white" stroke="white" stroke-width="0.7"/>
<circle cx="11.5" cy="6.5" r="5.5" stroke="white" stroke-width="2"/>
</g>
<defs>
<clipPath id="clip0">
<rect width="24" height="24" fill="white"/>
</clipPath>
</defs>
</svg>
