<svg width="40" height="40" viewBox="0 0 40 40" fill="none" xmlns="http://www.w3.org/2000/svg">
<circle cx="20" cy="20" r="19" stroke="#3EBFF7" stroke-width="2"/>
<path d="M24.7728 9.03001C24.1964 9.19413 23.8027 9.70289 23.8449 10.2322C23.8543 10.4004 23.8355 10.4824 23.7559 10.5932C23.3153 11.2251 23.6668 12.1113 24.4588 12.3411C24.7822 12.4354 25.2883 12.4026 25.5695 12.2713C25.7288 12.2016 25.8647 12.1728 26.1084 12.1687C26.5349 12.1605 26.8583 12.0416 27.1301 11.7872C27.6456 11.303 27.5987 10.5358 27.027 10.0968C26.9145 10.0106 26.7552 9.91624 26.6661 9.88752C26.5537 9.8547 26.4927 9.80136 26.4599 9.70699C26.3896 9.52236 26.0663 9.21054 25.8319 9.10797C25.6211 9.0136 24.9931 8.96437 24.7728 9.03001ZM25.5414 9.73572C25.7148 9.8547 25.8038 10.0229 25.8038 10.2322V10.4127L26.1131 10.4578C26.2818 10.4824 26.4646 10.5399 26.5162 10.5809C26.8864 10.8722 26.7552 11.3728 26.2678 11.5C26.1272 11.541 26.0663 11.5328 25.8741 11.4589C25.7523 11.4138 25.6351 11.3728 25.6164 11.3728C25.5976 11.3728 25.4851 11.4548 25.3727 11.5574C25.1852 11.7215 25.1337 11.742 24.9556 11.742C24.6885 11.742 24.4588 11.619 24.3698 11.4261C24.262 11.2046 24.3182 11.0199 24.5666 10.8066C24.7681 10.6301 24.7681 10.6219 24.7025 10.5071C24.6603 10.4414 24.6182 10.3101 24.6041 10.2158C24.5572 9.90393 24.8337 9.64955 25.2227 9.64955C25.3492 9.64955 25.4617 9.67827 25.5414 9.73572Z" fill="white"/>
<path d="M15.1656 9.6455C15.1 9.66191 14.9735 9.71115 14.8845 9.75218C14.7767 9.80141 14.608 9.82603 14.3502 9.83013C13.919 9.83423 13.7269 9.89988 13.4598 10.1255C13.2348 10.3184 13.1458 10.4743 13.1177 10.7533C13.0989 10.8887 13.0427 11.0569 12.9724 11.1595C12.7943 11.4303 12.7756 11.8282 12.9255 12.1155C13.0521 12.3575 13.2114 12.5134 13.4691 12.6529C13.6847 12.7719 14.2705 12.8047 14.5142 12.7145C14.6361 12.6693 14.7392 12.6611 14.8891 12.6858C15.0016 12.7063 15.1938 12.7022 15.3156 12.6817C15.8827 12.5914 16.2529 12.2385 16.3326 11.7175C16.356 11.5862 16.4075 11.459 16.4638 11.4015C16.6653 11.2128 16.7356 11.0364 16.7356 10.7164C16.7356 10.4948 16.7075 10.3635 16.6419 10.2445C16.5247 10.0353 16.267 9.80962 16.0326 9.71525C15.8311 9.62909 15.3484 9.59216 15.1656 9.6455ZM15.803 10.3676C15.8639 10.4004 15.9389 10.503 15.967 10.5974C16.0186 10.741 16.0139 10.782 15.9436 10.8969C15.8967 10.9707 15.7749 11.0733 15.6718 11.1267C15.5218 11.2005 15.489 11.2333 15.5171 11.3072C15.5874 11.5205 15.5968 11.6682 15.5406 11.779C15.4234 12.0334 15.0719 12.1114 14.772 11.9554L14.608 11.8734L14.4299 11.9883C14.1862 12.1524 13.9565 12.1524 13.7503 11.9924C13.6191 11.8898 13.5957 11.8447 13.5957 11.6846C13.5957 11.5328 13.6238 11.4754 13.7456 11.3646C13.8862 11.2374 13.8909 11.2169 13.8722 10.983C13.8488 10.7205 13.8769 10.6671 14.0878 10.5399C14.2471 10.4415 14.4439 10.4538 14.6783 10.5728L14.8798 10.6794L15.1141 10.4661C15.3344 10.2691 15.3625 10.2568 15.5218 10.2773C15.6155 10.2897 15.7421 10.3307 15.803 10.3676Z" fill="white"/>
<path d="M21.4783 11.7174C21.3846 11.7461 21.2721 11.7995 21.2299 11.8282C21.183 11.861 21.0003 11.8815 20.705 11.8815C20.3629 11.8856 20.2129 11.9062 20.0958 11.9595C19.9458 12.0292 19.9411 12.0292 19.8052 11.9472C19.435 11.7174 18.8398 11.6723 18.4227 11.8446C18.1462 11.9636 17.865 12.2098 17.7573 12.4354C17.7151 12.5175 17.6729 12.7103 17.6542 12.8703C17.6307 13.1124 17.612 13.1575 17.5323 13.1699C17.3823 13.1945 17.0168 13.4242 16.9043 13.5719C16.8434 13.6458 16.7684 13.7771 16.7356 13.8632L16.6747 14.0192L16.2342 14.0438C15.9342 14.0602 15.7468 14.0889 15.6343 14.1464C15.5125 14.2038 15.3719 14.2243 15.0954 14.2243C14.7954 14.2284 14.6736 14.2489 14.4955 14.3269C14.1018 14.4992 13.8113 14.8767 13.8066 15.2131C13.8066 15.3198 13.7597 15.4593 13.6801 15.5824C13.577 15.7424 13.5488 15.8368 13.5488 16.0501C13.5488 16.1978 13.5676 16.3742 13.5863 16.4481C13.6238 16.5712 13.6144 16.5794 13.4692 16.604C13.2161 16.6532 12.874 16.8338 12.7193 17.002C12.5366 17.2071 12.4007 17.523 12.4007 17.7446C12.4007 17.9703 12.5131 18.3067 12.635 18.4421L12.7334 18.5488L12.6115 18.7088C12.4522 18.9221 12.3116 19.2873 12.2788 19.5704C12.2601 19.755 12.4522 20.8587 13.2161 24.8878C13.7457 27.686 14.1815 29.9795 14.1815 29.9877C14.1815 29.9918 16.67 30 19.7115 30C22.753 30 25.2415 29.9918 25.2415 29.9836C25.2415 29.9754 25.6726 27.6819 26.2069 24.8837C27.2473 19.3858 27.2192 19.5745 27.013 19.0863C26.8771 18.7621 26.8958 18.4913 27.0692 18.3231C27.266 18.1221 27.3691 17.8103 27.327 17.5313C27.3082 17.4041 27.2942 17.2317 27.2942 17.1456C27.2988 17.0635 27.3082 16.8502 27.3129 16.6737C27.327 16.3947 27.3129 16.3373 27.2004 16.1732C27.0364 15.927 26.8583 15.7875 26.5912 15.6808C26.385 15.6029 26.3709 15.5906 26.4131 15.4921C26.4881 15.3239 26.4647 15.0449 26.3616 14.8028C26.2491 14.5361 25.8929 14.2284 25.6258 14.1628C25.4055 14.1094 24.9556 14.1094 24.801 14.1587C24.7119 14.1915 24.6604 14.1833 24.576 14.1258C24.3042 13.9412 24.0511 13.8632 23.6481 13.8427C23.3341 13.8263 23.217 13.8017 23.0951 13.732C23.0014 13.6745 22.9592 13.6253 22.9873 13.6089C23.0904 13.5555 23.2826 13.1617 23.306 12.9524C23.3575 12.5134 23.0904 12.0457 22.6499 11.8077C22.4578 11.7051 22.3687 11.6846 22.0407 11.6723C21.7923 11.6641 21.5954 11.6805 21.4783 11.7174ZM22.2937 12.4026C22.6921 12.6488 22.6452 13.0714 22.1906 13.3217C22.0313 13.4119 22.0032 13.4448 22.0313 13.5186C22.05 13.5678 22.0735 13.732 22.0875 13.8797L22.111 14.1546L22.3453 14.1792C22.5843 14.2079 22.7108 14.29 22.8983 14.532C22.9686 14.6223 22.9779 14.6223 23.1513 14.5566C23.5919 14.3966 24.0277 14.5156 24.3276 14.8808C24.4307 15.0039 24.5292 15.1064 24.5479 15.1064C24.5666 15.1064 24.6791 15.0326 24.7963 14.9423C24.9697 14.811 25.0494 14.7782 25.1946 14.7782C25.5508 14.7782 25.8039 15.1064 25.6539 15.3772C25.6024 15.4798 25.368 15.6521 25.2368 15.689C25.2087 15.6973 25.2181 15.7998 25.2602 15.968C25.3024 16.1157 25.3352 16.2963 25.3352 16.366C25.3352 16.5301 25.3774 16.5342 25.7101 16.3783C26.1085 16.1896 26.3709 16.2306 26.5303 16.5014C26.6287 16.6696 26.6193 16.7476 26.46 16.9692L26.3147 17.1661L26.46 17.3548C26.6427 17.5928 26.6381 17.7323 26.4553 17.9169C26.2585 18.1139 26.1554 18.1262 25.8273 17.9908C25.5742 17.8882 25.4946 17.88 25.0072 17.8759C24.4823 17.8759 24.4589 17.88 24.1027 18.0277C23.8637 18.1303 23.6528 18.2575 23.4794 18.4052L23.2263 18.6308L23.0295 18.4462C22.6452 18.081 22.0407 17.8554 21.4455 17.8554C20.8925 17.8595 20.391 18.04 19.9833 18.3888L19.7115 18.6185L19.4397 18.3888C19.032 18.04 18.5305 17.8595 17.9775 17.8554C17.3823 17.8554 16.7778 18.081 16.3935 18.4462L16.1967 18.6308L15.9436 18.4052C15.7702 18.2575 15.5593 18.1303 15.3203 18.0277C14.9641 17.88 14.9407 17.8759 14.4158 17.8759C13.9284 17.88 13.8488 17.8882 13.5957 17.9908C13.3333 18.0975 13.3145 18.1016 13.2583 18.0359C13.0802 17.8226 13.1739 17.4656 13.441 17.322C13.6519 17.2112 13.8675 17.2194 14.144 17.3507L14.3783 17.4615L14.5236 17.3056C14.5986 17.2235 14.8235 17.0594 15.0157 16.9445L15.3719 16.7353L14.9313 16.5999C14.4861 16.4645 14.3455 16.3783 14.294 16.1896C14.2518 16.0419 14.308 15.9065 14.4627 15.7752C14.5986 15.6644 14.6033 15.648 14.5752 15.4265C14.5517 15.2295 14.5611 15.1762 14.6455 15.0695C14.7017 15.0039 14.8189 14.9259 14.9126 14.9013C15.0579 14.8562 15.1047 14.8644 15.3391 14.9628L15.5968 15.0777L15.7702 14.9095C16.0748 14.6182 16.431 14.6182 16.9043 14.9095C17.0683 15.0121 17.2277 15.1064 17.2558 15.1187C17.2886 15.1352 17.3917 15.049 17.5042 14.9218L17.701 14.6961L17.5511 14.5074C17.4292 14.3515 17.4105 14.2941 17.4339 14.171C17.4667 13.9617 17.687 13.7935 17.9213 13.7935C18.0666 13.7935 18.1369 13.7566 18.3384 13.5884L18.5821 13.3832L18.493 13.2068C18.3806 12.9975 18.3759 12.8457 18.4696 12.6857C18.5774 12.5011 18.7602 12.3985 18.9804 12.3985C19.2616 12.3985 19.4491 12.5175 19.6131 12.8047C19.6928 12.9401 19.7771 13.0591 19.8005 13.0714C19.824 13.0837 19.9318 12.9934 20.0442 12.8662C20.3676 12.497 20.6207 12.4354 21.0237 12.6283L21.2487 12.7349L21.4783 12.5257C21.6939 12.3329 21.7267 12.3165 21.9329 12.3165C22.0828 12.3165 22.2 12.3452 22.2937 12.4026ZM14.8423 18.5734C15.2594 18.7047 15.5827 18.9796 15.7233 19.3324C15.7702 19.4473 16.6606 28.8676 16.6653 29.2697V29.3846H15.7561H14.847L14.8189 29.2697C14.8048 29.2081 14.3877 27.0336 13.8956 24.4406C13.2723 21.1418 13.0146 19.673 13.0333 19.5581C13.1317 18.9837 13.7363 18.5201 14.3971 18.516C14.5283 18.5118 14.7298 18.5406 14.8423 18.5734ZM18.4134 18.5939C18.7555 18.7047 19.0226 18.918 19.1819 19.2011L19.3132 19.435L19.3272 24.4118L19.3366 29.3846H18.3852H17.4339L16.9981 24.5226C16.7544 21.8475 16.5716 19.595 16.5856 19.513C16.6231 19.316 16.7778 19.0575 16.9606 18.8893C17.3448 18.5365 17.8932 18.4257 18.4134 18.5939ZM22.0641 18.6308C22.4484 18.8032 22.7717 19.1724 22.8374 19.513C22.8514 19.595 22.6686 21.8475 22.4249 24.5226L21.9891 29.3846H21.0378H20.0864L20.0958 24.4118L20.1098 19.435L20.2411 19.2011C20.5738 18.6062 21.4127 18.3477 22.0641 18.6308ZM25.6305 18.6513C25.9679 18.7949 26.2397 19.0822 26.3522 19.4063L26.4272 19.6401L25.5227 24.4406C25.0259 27.0787 24.6088 29.2738 24.5948 29.3107C24.576 29.3764 24.4917 29.3846 23.6669 29.3846H22.7577V29.2697C22.7624 28.8635 23.6528 19.4473 23.6997 19.3324C23.9808 18.6349 24.8666 18.3231 25.6305 18.6513Z" fill="white"/>
<path d="M19.2287 14.5485C18.8257 14.6797 18.4555 15.0039 18.3711 15.2993C18.3524 15.3649 18.2915 15.3978 18.1415 15.4265C17.8697 15.4757 17.5416 15.6521 17.3917 15.8245C17.2464 15.9886 17.087 16.3332 17.087 16.4809C17.087 16.5835 17.0964 16.5835 17.4573 16.5835C17.8228 16.5835 17.8275 16.5835 17.8509 16.4645C17.8884 16.3045 18.1321 16.0994 18.3243 16.0706C18.4227 16.0542 18.5961 16.0747 18.7976 16.1281L19.1116 16.2101L19.0835 15.8819C19.0507 15.5947 19.06 15.5414 19.1444 15.4183C19.2522 15.2706 19.4912 15.1475 19.6739 15.1475C19.852 15.1475 20.077 15.2952 20.1848 15.4839C20.3535 15.7793 20.3535 15.7793 20.6019 15.6193C20.7237 15.5414 20.8643 15.4757 20.9159 15.4757C21.0143 15.4757 21.2111 15.6357 21.2111 15.7137C21.2111 15.7465 21.3283 15.7629 21.5907 15.7629H21.975L21.9422 15.5947C21.9047 15.3854 21.8203 15.2418 21.6516 15.09C21.4361 14.9054 21.2627 14.8439 20.9205 14.8398C20.7003 14.8357 20.5784 14.8151 20.5222 14.7659C20.2457 14.5485 19.5708 14.4377 19.2287 14.5485Z" fill="white"/>
<path d="M22.8045 16.0132C22.7435 16.0378 22.617 16.1035 22.5327 16.1609C22.3874 16.2553 22.3358 16.2676 22.0218 16.2594C21.7219 16.2512 21.6282 16.2676 21.4173 16.3578C21.2814 16.4153 21.1033 16.5343 21.0236 16.6163C20.8783 16.7722 20.7424 17.0635 20.7424 17.2277C20.7424 17.3179 20.7565 17.322 21.1127 17.322C21.4688 17.322 21.4829 17.3179 21.511 17.2153C21.5626 17.0471 21.7594 16.9117 21.9609 16.9117C22.0874 16.9117 22.1952 16.9528 22.3499 17.0553C22.467 17.1333 22.5748 17.1989 22.5889 17.1989C22.6029 17.1989 22.6686 17.1087 22.7342 16.9979C22.8794 16.7394 23.0482 16.6245 23.2684 16.6245C23.4699 16.6245 23.6293 16.7353 23.7043 16.9158C23.7511 17.0348 23.7558 17.0348 24.126 17.0348H24.5056L24.4728 16.8666C24.4072 16.522 24.1214 16.1855 23.7652 16.046C23.559 15.9599 23.006 15.9434 22.8045 16.0132Z" fill="white"/>
<path d="M13.9143 19.7099C13.694 19.7427 13.6706 19.7591 13.6893 19.837C13.7034 19.8863 13.8065 20.4238 13.919 21.031C14.0361 21.6341 14.1392 22.1388 14.1533 22.1511C14.1627 22.1634 14.3314 22.147 14.5282 22.1224C14.8516 22.0731 14.8797 22.0649 14.861 21.9829C14.8469 21.9377 14.7532 21.4331 14.6501 20.871C14.547 20.3048 14.4532 19.8042 14.4392 19.7509C14.4111 19.6483 14.3314 19.6442 13.9143 19.7099Z" fill="white"/>
<path d="M15.0719 25.577C14.9313 25.6017 14.8095 25.6222 14.8001 25.6304C14.7954 25.6345 14.8516 25.975 14.9313 26.3812C15.0063 26.7874 15.0719 27.1279 15.0719 27.1403C15.0719 27.1567 15.7795 27.0582 15.7983 27.0377C15.8077 27.0295 15.7514 26.7012 15.6764 26.3074C15.6015 25.9135 15.5405 25.577 15.5405 25.5565C15.5405 25.5196 15.4046 25.5278 15.0719 25.577Z" fill="white"/>
<path d="M21.4313 19.9807C21.3282 21.0967 21.3282 21.0475 21.4501 21.0721C21.511 21.0844 21.6797 21.1008 21.825 21.109L22.0874 21.1213L22.1437 20.4279C22.1765 20.0464 22.1952 19.7305 22.1858 19.7263C22.1812 19.7181 22.0124 19.7017 21.8156 19.6894L21.4594 19.6689L21.4313 19.9807Z" fill="white"/>
<path d="M21.2579 21.9788C21.2392 21.9952 21.0423 24.3257 21.0564 24.338C21.0704 24.3544 21.6234 24.3995 21.7781 24.3995C21.7968 24.3995 21.989 22.0527 21.9656 22.0363C21.9468 22.0157 21.272 21.9624 21.2579 21.9788Z" fill="white"/>
<path d="M20.8128 26.8162C20.8034 26.8654 20.78 27.05 20.7659 27.2347L20.7378 27.567L21.0986 27.5957C21.2955 27.6121 21.4642 27.6203 21.4736 27.6121C21.4783 27.6039 21.5064 27.4193 21.5251 27.1977C21.572 26.7423 21.6048 26.7751 21.1033 26.7464C20.8596 26.7341 20.8315 26.7382 20.8128 26.8162Z" fill="white"/>
<path d="M29.2249 11.9965C29.0702 12.058 28.9109 12.0826 28.6344 12.0908C28.2267 12.0949 27.9689 12.1811 27.7065 12.3903C27.5237 12.538 27.3503 12.8745 27.3503 13.0796C27.3503 13.1863 27.3034 13.3217 27.2285 13.4407C27.0644 13.6992 27.0316 14.0397 27.1394 14.331C27.3409 14.8521 28.0345 15.1803 28.6156 15.0203C28.7047 14.9957 28.9906 14.9711 29.2483 14.967C29.6279 14.9629 29.7545 14.9423 29.9044 14.8726C30.284 14.6962 30.5793 14.3064 30.584 13.9864C30.584 13.8756 30.6261 13.7853 30.7292 13.6745C31.1416 13.2232 31.076 12.5668 30.5793 12.177C30.448 12.0744 30.2653 11.9718 30.1715 11.9472C29.881 11.8775 29.4592 11.898 29.2249 11.9965ZM30.0638 12.6693C30.2325 12.7924 30.2934 12.9976 30.1997 13.1617C30.1481 13.2643 29.9185 13.4325 29.7873 13.4735C29.7591 13.4817 29.7638 13.5761 29.7966 13.7197C29.8622 14.0028 29.8154 14.1259 29.5904 14.2448C29.3936 14.3474 29.2671 14.3474 29.0327 14.2448L28.85 14.1587L28.6953 14.2613C28.4844 14.4008 28.3298 14.4254 28.1329 14.3556C27.9595 14.29 27.819 14.1136 27.819 13.9576C27.819 13.8387 27.9455 13.6417 28.0533 13.5884C28.1329 13.5515 28.1423 13.5145 28.1189 13.2889C28.0955 13.0714 28.1048 13.0181 28.1892 12.9237C28.2454 12.8622 28.3626 12.7924 28.4563 12.7678C28.6016 12.7227 28.6485 12.7309 28.8781 12.8293L29.1358 12.9401L29.3374 12.7514C29.5108 12.5873 29.5623 12.5627 29.7263 12.5627C29.8669 12.5627 29.9607 12.5914 30.0638 12.6693Z" fill="white"/>
<path d="M11.1774 13.5227C11.0884 13.5514 10.9619 13.6048 10.9056 13.6376C10.8213 13.6909 10.7229 13.6992 10.4604 13.6827C10.1933 13.6663 10.0761 13.6786 9.86993 13.7484C9.55594 13.851 9.24194 14.1094 9.10135 14.3679C8.96544 14.6264 8.96544 15.0941 9.10604 15.3608C9.21851 15.5742 9.51844 15.8491 9.72465 15.9229C9.81369 15.9558 9.89336 16.0378 9.96834 16.1773C10.1839 16.5835 10.5588 16.7927 11.1118 16.8215C11.4258 16.8379 11.5289 16.8256 11.7304 16.7517C12.1663 16.5835 12.4943 16.1855 12.5318 15.767C12.5506 15.5824 12.5834 15.5085 12.7146 15.3731C13.1083 14.967 13.0895 14.2859 12.663 13.8469C12.5927 13.7771 12.41 13.6581 12.2506 13.5925C12.0163 13.4899 11.9085 13.4653 11.6555 13.4653C11.4867 13.4694 11.2712 13.494 11.1774 13.5227ZM11.9835 14.2161C12.171 14.3269 12.2928 14.5813 12.2413 14.7577C12.2085 14.8726 11.9507 15.1229 11.7773 15.209C11.7023 15.246 11.7023 15.2747 11.7539 15.4798C11.8195 15.7547 11.7632 15.9106 11.5477 16.0706C11.4446 16.1486 11.3555 16.1732 11.1962 16.1732C10.8306 16.1732 10.5729 15.9352 10.5729 15.6029V15.4388L10.3245 15.3937C9.96366 15.3321 9.72933 15.1106 9.72933 14.848C9.72933 14.6962 9.88867 14.4828 10.0621 14.4008C10.2823 14.2982 10.451 14.3064 10.7182 14.4377L10.9478 14.5526L11.1259 14.3802C11.2196 14.2859 11.3415 14.1915 11.393 14.1669C11.5524 14.093 11.8148 14.1135 11.9835 14.2161Z" fill="white"/>
</svg>
