<svg width="40" height="40" viewBox="0 0 40 40" fill="none" xmlns="http://www.w3.org/2000/svg">
<circle cx="20" cy="20" r="19" stroke="#ACE1FF" stroke-width="2"/>
<path d="M11 19.5V31H20H29V19.5V8H20H11V19.5ZM15.1932 9.00625C15.3773 9.48387 15.7352 9.83629 16.267 10.0774L16.5483 10.2026H20H23.4517L23.733 10.0774C24.2648 9.84093 24.6841 9.41432 24.8324 8.95988L24.8937 8.76512L26.5403 8.75121L28.1818 8.74194V19.5V30.2581L26.5403 30.2488L24.8937 30.2349L24.8324 30.0401C24.6841 29.5857 24.2648 29.1591 23.733 28.9226L23.4517 28.7974H20H16.5483L16.267 28.9226C15.7352 29.1591 15.3159 29.5857 15.1676 30.0401L15.1062 30.2349L13.4597 30.2488L11.8182 30.2581V19.5V8.74194L13.4597 8.75121L15.1011 8.76512L15.1932 9.00625ZM23.917 8.87178C23.8097 9.0619 23.4722 9.32157 23.242 9.39577C22.9506 9.48851 17.0494 9.48851 16.758 9.39577C16.5278 9.32157 16.1903 9.0619 16.083 8.87178L16.0062 8.74194H20H23.9937L23.917 8.87178ZM23.2983 29.6228C23.5335 29.7202 23.8097 29.9474 23.917 30.1282L23.9937 30.2581H20H16.0062L16.083 30.1282C16.1699 29.9845 16.446 29.7387 16.6148 29.6599C16.8705 29.5393 17.2693 29.5254 20.1278 29.53C22.8636 29.5393 23.1091 29.544 23.2983 29.6228Z" fill="white"/>
<path d="M12.6364 9.85486V10.2258H13.0454H13.4545V9.85486V9.48389H13.0454H12.6364V9.85486Z" fill="white"/>
<path d="M12.6364 11.3387V11.7097H13.0454H13.4545V11.3387V10.9678H13.0454H12.6364V11.3387Z" fill="white"/>
<path d="M21.2017 11.3388L20.8949 11.617L21.5597 12.2198L22.2244 12.8226L21.5597 13.4255L20.8949 14.0283L21.2171 14.3158L21.5341 14.6079L22.1989 14.0051L22.8636 13.4023L23.5284 14.0051L24.1932 14.6079L24.5102 14.3158L24.8324 14.0283L24.1676 13.4255L23.5029 12.8226L24.1676 12.2198L24.8324 11.617L24.5102 11.3295L24.1932 11.0373L23.5284 11.6402L22.8636 12.243L22.2091 11.6494C21.8511 11.3248 21.5443 11.0605 21.5341 11.0605C21.5188 11.0605 21.3705 11.1857 21.2017 11.3388Z" fill="white"/>
<path d="M18.2972 11.8441C17.4023 11.9601 16.6711 12.0713 16.6711 12.0945C16.6506 12.2846 16.7529 12.7855 16.8091 12.8086C16.85 12.8225 17.1466 12.7994 17.4739 12.753C17.8012 12.7113 18.0773 12.6881 18.0927 12.6973C18.1029 12.7113 17.3103 13.3558 16.3284 14.1348C15.3466 14.9139 14.4313 15.6651 14.2983 15.7996C13.5006 16.6018 12.9177 17.6869 12.7131 18.7302C12.6159 19.2542 12.6108 20.2929 12.7131 20.8076C13.0455 22.5512 14.2881 24.1185 16.0114 24.9857C16.2875 25.1248 17.75 25.6673 18.1387 25.7786C18.2358 25.8064 18.2614 25.7693 18.3892 25.4586C18.4659 25.2592 18.512 25.0877 18.4864 25.0645C18.4608 25.0459 18.0978 24.9115 17.6733 24.7631C16.4409 24.3365 15.8427 24.0211 15.2188 23.46C14.4671 22.7923 14.0017 22.0689 13.6796 21.0905C13.5006 20.5387 13.4495 19.4953 13.5773 18.8832C13.7921 17.8677 14.283 16.9867 15.0552 16.2586C15.4182 15.9155 18.9773 13.0869 18.9773 13.1425C18.9773 13.1657 18.9313 13.481 18.8699 13.8427C18.8137 14.1998 18.7728 14.5336 18.783 14.5754C18.7932 14.6357 18.8904 14.6635 19.2023 14.7052C19.4887 14.7377 19.6063 14.7377 19.6165 14.7052C19.6267 14.6774 19.729 14.0375 19.8466 13.2863C19.9591 12.5351 20.0665 11.8488 20.087 11.7653C20.1074 11.6401 20.0972 11.6169 20.0205 11.6215C19.9642 11.6262 19.1921 11.7236 18.2972 11.8441Z" fill="white"/>
<path d="M12.6364 12.8228V13.1937H13.0454H13.4545V12.8228V12.4518H13.0454H12.6364V12.8228Z" fill="white"/>
<path d="M18.7471 15.7903L18.4403 16.0685L19.1051 16.6713L19.7699 17.2742L19.1051 17.877L18.4403 18.4798L18.7625 18.7673L19.0795 19.0594L19.7443 18.4566L20.4091 17.8538L21.0738 18.4566L21.7386 19.0594L22.0556 18.7673L22.3778 18.4798L21.713 17.877L21.0483 17.2742L21.713 16.6713L22.3778 16.0685L22.0556 15.781L21.7386 15.4889L21.0738 16.0917L20.4091 16.6945L19.7545 16.101C19.3966 15.7764 19.0897 15.5121 19.0795 15.5121C19.0642 15.5121 18.9159 15.6373 18.7471 15.7903Z" fill="white"/>
<path d="M23.6562 15.7903L23.3494 16.0685L24.0141 16.6713L24.6789 17.2742L24.0141 17.877L23.3494 18.4798L23.6715 18.7673L23.9886 19.0594L24.6533 18.4566L25.3181 17.8538L25.9829 18.4566L26.6477 19.0594L26.9647 18.7673L27.2869 18.4798L26.6221 17.877L25.9573 17.2742L26.6221 16.6713L27.2869 16.0685L26.9647 15.781L26.6477 15.4889L25.9829 16.0917L25.3181 16.6945L24.6636 16.101C24.3056 15.7764 23.9988 15.5121 23.9886 15.5121C23.9732 15.5121 23.8249 15.6373 23.6562 15.7903Z" fill="white"/>
<path d="M16.2927 19.871L15.9858 20.1492L16.6506 20.752L17.3154 21.3549L16.6506 21.9577L15.9858 22.5605L16.308 22.848L16.625 23.1401L17.2898 22.5373L17.9546 21.9345L18.6194 22.5373L19.2841 23.1401L19.6012 22.848L19.9233 22.5605L19.2586 21.9577L18.5938 21.3549L19.2586 20.752L19.9233 20.1492L19.6012 19.8617L19.2841 19.5696L18.6194 20.1724L17.9546 20.7752L17.3 20.1817C16.9421 19.8571 16.6353 19.5928 16.625 19.5928C16.6097 19.5928 16.4614 19.718 16.2927 19.871Z" fill="white"/>
<path d="M25.0728 20.3393C24.4796 20.548 24.0909 21.0952 24.0909 21.7258C24.0909 22.3287 24.4182 22.8202 24.9858 23.0706C25.354 23.2375 25.9523 23.2561 26.3563 23.117C27.6961 22.6625 27.7012 20.7938 26.3665 20.3393C25.9881 20.2095 25.4461 20.2095 25.0728 20.3393ZM26.1262 21.123C26.7909 21.4893 26.5046 22.4214 25.7273 22.4214C24.95 22.4214 24.6637 21.4893 25.3284 21.123C25.5483 21.0025 25.9063 21.0025 26.1262 21.123Z" fill="white"/>
<path d="M20.9818 24.0489C20.3886 24.2576 20 24.8048 20 25.4354C20 26.0383 20.3273 26.5298 20.8949 26.7802C21.2631 26.9471 21.8614 26.9657 22.2653 26.8266C23.6051 26.3721 23.6102 24.5034 22.2756 24.0489C21.8972 23.9191 21.3551 23.9191 20.9818 24.0489ZM22.0352 24.8326C22.7 25.1989 22.4136 26.131 21.6364 26.131C20.8591 26.131 20.5727 25.1989 21.2375 24.8326C21.4574 24.712 21.8153 24.712 22.0352 24.8326Z" fill="white"/>
<path d="M25.0728 24.0489C24.4796 24.2576 24.0909 24.8048 24.0909 25.4354C24.0909 26.0383 24.4182 26.5298 24.9858 26.7802C25.354 26.9471 25.9523 26.9657 26.3563 26.8266C27.6961 26.3721 27.7012 24.5034 26.3665 24.0489C25.9881 23.9191 25.4461 23.9191 25.0728 24.0489ZM26.1262 24.8326C26.7909 25.1989 26.5046 26.131 25.7273 26.131C24.95 26.131 24.6637 25.1989 25.3284 24.8326C25.5483 24.712 25.9063 24.712 26.1262 24.8326Z" fill="white"/>
<path d="M12.6364 26.1774V26.5483H13.0454H13.4545V26.1774V25.8064H13.0454H12.6364V26.1774Z" fill="white"/>
<path d="M12.6364 27.6613V28.0322H13.0454H13.4545V27.6613V27.2903H13.0454H12.6364V27.6613Z" fill="white"/>
<path d="M12.6364 29.1451V29.5161H13.0454H13.4545V29.1451V28.7742H13.0454H12.6364V29.1451Z" fill="white"/>
</svg>
