<svg width="16" height="16" viewBox="0 0 16 16" fill="none" xmlns="http://www.w3.org/2000/svg">
<path d="M9.41335 9.41333C9.23026 9.60983 9.00945 9.76744 8.76412 9.87675C8.51879 9.98606 8.25396 10.0448 7.98541 10.0496C7.71687 10.0543 7.45013 10.0049 7.20109 9.90433C6.95206 9.80374 6.72583 9.65402 6.53592 9.4641C6.346 9.27419 6.19628 9.04796 6.09569 8.79893C5.9951 8.54989 5.9457 8.28315 5.95044 8.01461C5.95518 7.74607 6.01396 7.48123 6.12327 7.2359C6.23258 6.99057 6.39019 6.76977 6.58669 6.58667M11.96 11.96C10.8204 12.8287 9.43276 13.3099 8.00002 13.3333C3.33335 13.3333 0.666687 8 0.666687 8C1.49595 6.4546 2.64611 5.1044 4.04002 4.04L11.96 11.96ZM6.60002 2.82667C7.05891 2.71925 7.52873 2.66556 8.00002 2.66667C12.6667 2.66667 15.3334 8 15.3334 8C14.9287 8.75707 14.4461 9.46982 13.8934 10.1267L6.60002 2.82667Z" stroke="white" stroke-opacity="0.9" stroke-linecap="round" stroke-linejoin="round"/>
<path d="M0.666687 0.666667L15.3334 15.3333" stroke="white" stroke-opacity="0.9" stroke-linecap="round" stroke-linejoin="round"/>
</svg>
