<svg width="40" height="40" viewBox="0 0 40 40" fill="none" xmlns="http://www.w3.org/2000/svg">
<circle cx="20" cy="20" r="19" stroke="#FFFCB7" stroke-width="2"/>
<path d="M25.0941 17.6169H20.6749C19.07 17.6169 17.769 18.9179 17.769 20.5228V21.5591H28V20.5228C27.9999 18.9179 26.6989 17.6169 25.0941 17.6169Z" fill="white"/>
<path d="M28 22.697H17.769V24.2142H28V22.697Z" fill="white"/>
<path d="M20.6749 28.258H25.0941C26.699 28.258 28 26.957 28 25.3522H17.769C17.769 26.957 19.07 28.258 20.6749 28.258Z" fill="white"/>
<path d="M16.6312 25.3521V20.5228C16.6312 18.293 18.4452 16.4791 20.6749 16.4791H21.4025L21.5699 13.7671H17.8539V12.1379H21.57V11H17.8539C17.2265 11 16.716 11.5105 16.716 12.1379V13.7671H13L13.8951 28.2579H17.8632C17.8473 28.2425 17.8313 28.2272 17.8156 28.2114C17.0518 27.4477 16.6312 26.4322 16.6312 25.3521Z" fill="white"/>
</svg>
