<svg width="35" height="30" viewBox="0 0 35 30" fill="none" xmlns="http://www.w3.org/2000/svg">
<path d="M32.024 6.05286C31.2336 6.05285 30.4753 6.36455 29.9153 6.91972C29.3552 7.47489 29.0389 8.22832 29.0356 9.01508V27.0353C29.0389 27.8221 29.3552 28.5755 29.9153 29.1307C30.4753 29.6858 31.2336 29.9975 32.024 29.9975C32.8144 29.9943 33.5713 29.6794 34.1291 29.1219C34.6868 28.5645 35 27.8097 35 27.023V9.01508C34.9967 8.23045 34.6821 7.47889 34.1247 6.92406C33.5673 6.36924 32.8123 6.05611 32.024 6.05286Z" fill="url(#paint0_linear)"/>
<g style="mix-blend-mode:multiply" opacity="0.1">
<path d="M32.024 6.05286V29.9975C32.8144 29.9943 33.5714 29.6794 34.1291 29.1219C34.6869 28.5645 35 27.8097 35 27.023V9.01508C35.0006 8.62437 34.9236 8.2374 34.7734 7.87644C34.6231 7.51548 34.4026 7.18768 34.1246 6.9119C34.0576 6.84525 33.9857 6.78107 33.9138 6.71936C33.7935 6.62351 33.6667 6.53608 33.5343 6.4577C33.0758 6.19201 32.5546 6.0523 32.024 6.05286Z" fill="black"/>
</g>
<path d="M32.024 9.77045C33.1326 9.77045 34.137 9.1311 34.8661 8.09926C34.6692 7.50373 34.2884 6.98527 33.7781 6.6178C33.2677 6.25034 32.6539 6.05263 32.024 6.05286C31.3929 6.05331 30.7781 6.25246 30.2677 6.6218C29.7572 6.99115 29.3771 7.51176 29.182 8.10914C29.9061 9.1311 30.9155 9.77045 32.024 9.77045Z" fill="url(#paint1_linear)"/>
<path d="M32.024 26.2701C30.9155 26.2701 29.9111 26.9094 29.182 27.9413C29.3771 28.5387 29.7572 29.0593 30.2677 29.4286C30.7781 29.7979 31.3929 29.9971 32.024 29.9976C32.6551 29.9971 33.2699 29.7979 33.7804 29.4286C34.2909 29.0593 34.6709 28.5387 34.8661 27.9413C34.137 26.9094 33.1301 26.2701 32.024 26.2701Z" fill="url(#paint2_linear)"/>
<path d="M22.3446 6.20595e-05C21.5521 6.20595e-05 20.792 0.313456 20.2315 0.871296C19.6711 1.42914 19.3563 2.18573 19.3563 2.97463V27.0353C19.3602 27.8219 19.6767 28.5749 20.2366 29.13C20.7966 29.685 21.5544 29.9969 22.3446 29.9975C23.1353 29.9976 23.8938 29.6859 24.4543 29.1308C25.0147 28.5757 25.3316 27.8223 25.3355 27.0353V2.97463C25.3355 2.5838 25.2581 2.1968 25.1078 1.83574C24.9575 1.47469 24.7371 1.14667 24.4593 0.870422C24.1816 0.594175 23.8519 0.37512 23.489 0.22578C23.1262 0.0764387 22.7373 -0.000262284 22.3446 6.20595e-05Z" fill="url(#paint3_linear)"/>
<g style="mix-blend-mode:multiply" opacity="0.1">
<path d="M22.3446 29.9975C23.1353 29.9975 23.8938 29.6859 24.4543 29.1308C25.0147 28.5757 25.3316 27.8223 25.3355 27.0353V2.97461C25.3371 2.58332 25.2609 2.19558 25.1111 1.83379C24.9614 1.47199 24.7411 1.14332 24.463 0.866747C24.1849 0.590174 23.8545 0.371186 23.4909 0.222425C23.1274 0.0736635 22.7378 -0.00192273 22.3446 3.71595e-05V29.9975Z" fill="black"/>
</g>
<path d="M22.3446 3.72752C23.4557 3.72752 24.4601 3.08817 25.1867 2.05386C24.9931 1.45571 24.6134 0.93435 24.1025 0.565151C23.5916 0.195952 22.976 -0.00195375 22.3446 4.55173e-05C21.7137 -0.00142953 21.0987 0.19672 20.5883 0.565882C20.0779 0.935043 19.6985 1.45611 19.5051 2.05386C20.2342 3.09064 21.2262 3.72752 22.3446 3.72752Z" fill="url(#paint4_linear)"/>
<path d="M22.3446 26.2701C21.2361 26.2701 20.2317 26.9094 19.5051 27.9413C19.6998 28.5385 20.0794 29.059 20.5894 29.4284C21.0995 29.7977 21.7139 29.997 22.3446 29.9976C22.9771 29.999 23.5937 29.8008 24.1058 29.4313C24.6178 29.0617 24.9989 28.5401 25.1941 27.9413C24.4502 26.9094 23.4582 26.2701 22.3446 26.2701Z" fill="url(#paint5_linear)"/>
<path d="M15.6536 9.02001C15.6536 7.3772 14.3157 6.04544 12.6653 6.04544C11.0148 6.04544 9.67689 7.3772 9.67689 9.02001V27.0254C9.67689 28.6682 11.0148 30 12.6653 30C14.3157 30 15.6536 28.6682 15.6536 27.0254V9.02001Z" fill="url(#paint6_linear)"/>
<g style="mix-blend-mode:multiply" opacity="0.1">
<path d="M14.9741 7.12668C14.8525 6.9785 14.7163 6.84288 14.5674 6.72184C14.4935 6.66115 14.4165 6.6043 14.3368 6.55151C13.844 6.21977 13.2626 6.04265 12.6677 6.043V29.9877C13.458 29.9837 14.2145 29.6687 14.7721 29.1114C15.3297 28.554 15.6431 27.7997 15.6437 27.0131V9.0151C15.6475 8.32734 15.4108 7.65969 14.9741 7.12668Z" fill="black"/>
</g>
<path d="M12.6678 9.77044C13.7763 9.77044 14.7807 9.13109 15.5073 8.09925C15.3109 7.50391 14.9306 6.98553 14.4207 6.61805C13.9108 6.25057 13.2973 6.05276 12.6678 6.05284C12.0365 6.05067 11.4208 6.24751 10.9089 6.61514C10.397 6.98277 10.0152 7.5023 9.81825 8.09925C10.5622 9.13109 11.5542 9.77044 12.6678 9.77044Z" fill="url(#paint7_linear)"/>
<path d="M12.6678 26.2701C11.5567 26.2701 10.5523 26.9094 9.82569 27.9413C10.0205 28.5389 10.4005 29.0597 10.9111 29.4291C11.4216 29.7985 12.0366 29.9975 12.6678 29.9976C13.2985 29.997 13.9129 29.7977 14.423 29.4284C14.933 29.059 15.3126 28.5385 15.5073 27.9413C14.7782 26.9094 13.7862 26.2701 12.6678 26.2701Z" fill="url(#paint8_linear)"/>
<path d="M2.98838 11.5355C2.59573 11.5355 2.20693 11.6125 1.8442 11.7621C1.48148 11.9118 1.15193 12.1311 0.874398 12.4076C0.596869 12.684 0.376801 13.0122 0.226766 13.3734C0.0767322 13.7346 -0.00032482 14.1217 1.02912e-06 14.5125V27.0353C0.00328079 27.8221 0.319572 28.5755 0.879646 29.1307C1.43972 29.6859 2.19796 29.9975 2.98838 29.9975C3.7788 29.9943 4.53572 29.6794 5.09347 29.122C5.65122 28.5645 5.96437 27.8097 5.96436 27.023V14.5125C5.96502 13.7253 5.65217 12.9699 5.09434 12.4119C4.53652 11.8539 3.77923 11.5387 2.98838 11.5355Z" fill="url(#paint9_linear)"/>
<g style="mix-blend-mode:multiply" opacity="0.1">
<path d="M5.91724 13.9126C5.82863 13.4922 5.65016 13.0957 5.39397 12.75C5.32949 12.666 5.26501 12.5846 5.19309 12.5031C5.12117 12.4217 5.06165 12.3673 4.98973 12.3032C4.92649 12.2447 4.86027 12.1895 4.79133 12.1378C4.27334 11.7444 3.63995 11.531 2.98838 11.5305V29.9975C3.7788 29.9943 4.53572 29.6794 5.09347 29.122C5.65123 28.5645 5.96437 27.8097 5.96436 27.023V14.5125C5.96903 14.3115 5.95324 14.1105 5.91724 13.9126Z" fill="black"/>
</g>
<path d="M2.98838 15.2654C4.09693 15.2654 5.10132 14.626 5.83044 13.5917C5.63525 12.9944 5.25522 12.4737 4.74474 12.1044C4.23425 11.7351 3.61948 11.5359 2.98838 11.5355C2.3572 11.5355 1.74224 11.7345 1.23168 12.1039C0.72112 12.4733 0.341176 12.9942 0.14632 13.5917C0.875435 14.626 1.88231 15.2654 2.98838 15.2654Z" fill="url(#paint10_linear)"/>
<path d="M2.98838 26.2701C1.87983 26.2701 0.875435 26.9094 0.14632 27.9413C0.341509 28.5387 0.721539 29.0593 1.23202 29.4286C1.74251 29.7979 2.35729 29.9971 2.98838 29.9976C3.61948 29.9971 4.23425 29.7979 4.74474 29.4286C5.25522 29.0593 5.63525 28.5387 5.83044 27.9413C5.10628 26.9094 4.09693 26.2701 2.98838 26.2701Z" fill="url(#paint11_linear)"/>
<defs>
<linearGradient id="paint0_linear" x1="32.024" y1="7.27231" x2="32.024" y2="36.7934" gradientUnits="userSpaceOnUse">
<stop stop-color="#7581D4"/>
<stop offset="0.99" stop-color="#6247B0"/>
</linearGradient>
<linearGradient id="paint1_linear" x1="32.024" y1="6.48732" x2="32.024" y2="19.4125" gradientUnits="userSpaceOnUse">
<stop offset="0.01" stop-color="#808DE8"/>
<stop offset="1" stop-color="#6E6BC7"/>
</linearGradient>
<linearGradient id="paint2_linear" x1="32.024" y1="32.5747" x2="32.024" y2="26.512" gradientUnits="userSpaceOnUse">
<stop stop-color="#7581D4"/>
<stop offset="0.99" stop-color="#5B498F"/>
</linearGradient>
<linearGradient id="paint3_linear" x1="22.3446" y1="4.76925" x2="22.3446" y2="31.3503" gradientUnits="userSpaceOnUse">
<stop stop-color="#338BA8"/>
<stop offset="1" stop-color="#3360A8"/>
</linearGradient>
<linearGradient id="paint4_linear" x1="22.3446" y1="0.402415" x2="22.3446" y2="20.1728" gradientUnits="userSpaceOnUse">
<stop stop-color="#41AED4"/>
<stop offset="1" stop-color="#3360A8"/>
</linearGradient>
<linearGradient id="paint5_linear" x1="22.3446" y1="33.8608" x2="22.3446" y2="26.391" gradientUnits="userSpaceOnUse">
<stop stop-color="#338BA8"/>
<stop offset="1" stop-color="#244478"/>
</linearGradient>
<linearGradient id="paint6_linear" x1="12.6677" y1="10.1333" x2="12.6677" y2="29.7062" gradientUnits="userSpaceOnUse">
<stop stop-color="#5EC2CC"/>
<stop offset="1" stop-color="#338BA8"/>
</linearGradient>
<linearGradient id="paint7_linear" x1="12.6678" y1="6.90448" x2="12.6678" y2="17.1982" gradientUnits="userSpaceOnUse">
<stop stop-color="#6FDBE8"/>
<stop offset="1" stop-color="#338BA8"/>
</linearGradient>
<linearGradient id="paint8_linear" x1="12.6678" y1="34.12" x2="12.6678" y2="27.176" gradientUnits="userSpaceOnUse">
<stop stop-color="#5EC2CC"/>
<stop offset="1" stop-color="#2A728A"/>
</linearGradient>
<linearGradient id="paint9_linear" x1="2.98838" y1="12.6735" x2="2.98838" y2="30.4493" gradientUnits="userSpaceOnUse">
<stop stop-color="#8CDBB3"/>
<stop offset="1" stop-color="#5EC2CC"/>
</linearGradient>
<linearGradient id="paint10_linear" x1="2.98838" y1="11.5601" x2="2.98838" y2="15.4012" gradientUnits="userSpaceOnUse">
<stop stop-color="#B5F7D6"/>
<stop offset="1" stop-color="#82D8D0"/>
</linearGradient>
<linearGradient id="paint11_linear" x1="2.98838" y1="33.0388" x2="2.98838" y2="26.8354" gradientUnits="userSpaceOnUse">
<stop stop-color="#8CDBB3"/>
<stop offset="1" stop-color="#449DA6"/>
</linearGradient>
</defs>
</svg>
