<svg width="40" height="40" viewBox="0 0 40 40" fill="none" xmlns="http://www.w3.org/2000/svg">
<circle cx="20" cy="20" r="19" stroke="#6FDBE8" stroke-width="2"/>
<path d="M28.3324 23.8112C27.9897 23.7851 27.2781 24.1725 27.0807 24.2694C26.3841 24.6196 25.423 25.1672 24.7897 25.603C24.745 25.6328 24.6854 25.6738 24.6407 25.6999C24.3575 25.8824 24.0558 26.0054 23.7205 26.0761C21.8803 26.4673 19.1981 26.512 19.1981 26.512L19.0416 26.5194C18.9224 26.5269 18.8181 26.4449 18.8032 26.3294C18.7846 26.2028 18.8777 26.0873 19.0081 26.0761L22.9978 25.6962C23.4374 25.6477 23.7876 25.2379 23.7392 24.776C23.6907 24.3141 23.266 23.9751 22.8265 24.0235L19.28 23.9788C19.0379 23.9751 18.6505 23.9155 18.4195 23.8484C16.1322 23.1816 14.8432 23.8074 14.1578 24.098C14.0051 23.8447 13.7145 23.6808 13.3904 23.7031L11.8593 23.8037C11.3489 23.8373 10.9652 24.2619 11.0025 24.7537L11.2484 28.1511C11.2819 28.6428 11.7252 29.0116 12.2318 28.9781L13.7629 28.8775C14.087 28.8552 14.3478 28.6577 14.4633 28.3858L21.1836 28.6764C21.9324 28.7546 22.6328 28.6652 23.2921 28.3187L23.4858 28.2182L28.5634 25.2454C28.813 25.1001 28.9918 24.8468 28.9992 24.5637C29.0141 24.2247 28.8167 23.8447 28.3324 23.8112ZM12.7943 28.1735C12.5075 28.1735 12.2728 27.9499 12.2728 27.6705C12.2728 27.3911 12.5075 27.1676 12.7943 27.1676C13.0812 27.1676 13.3159 27.3911 13.3159 27.6705C13.3159 27.9499 13.0812 28.1735 12.7943 28.1735Z" fill="white"/>
<path d="M24.7152 24.8691C25.233 24.5078 26.2947 23.9304 26.8945 23.6286C27.077 23.5392 27.267 23.4461 27.4719 23.3753C27.2111 23.2002 26.9318 23.1928 26.6412 23.3045C26.0712 23.5318 25.0207 24.0384 24.4843 24.329C24.4805 24.3364 24.4768 24.3439 24.4768 24.3513C24.5141 24.4631 24.5439 24.5786 24.555 24.6978C24.5662 24.7946 24.5625 24.8878 24.5588 24.9809C24.6072 24.9437 24.6593 24.9064 24.7152 24.8691Z" fill="white"/>
<path d="M26.086 22.9655C25.8253 22.7979 25.5496 22.7904 25.2665 22.9022C24.9126 23.04 24.1265 23.2971 23.7764 23.4833C23.9254 23.5765 24.0595 23.6919 24.175 23.8261C24.1973 23.8112 24.2197 23.7925 24.2457 23.7776L24.5028 23.6361C24.8753 23.4312 25.6762 23.1481 26.086 22.9655Z" fill="white"/>
<path d="M25.5758 16.3569C26.5704 15.9322 27.2707 14.9413 27.2707 13.7902C27.2707 12.248 26.0191 11 24.4805 11C22.942 11 21.6903 12.2517 21.6903 13.7902C21.6903 13.8051 21.694 13.82 21.694 13.8349C23.3518 14.01 24.7748 14.9823 25.5758 16.3569Z" fill="white"/>
<path d="M21.1612 22.9692C23.4001 22.9692 25.2143 21.155 25.2143 18.9161C25.2143 16.6772 23.4001 14.863 21.1612 14.863C18.9224 14.863 17.1082 16.6772 17.1082 18.9161C17.1082 21.155 18.9224 22.9692 21.1612 22.9692ZM19.7456 20.518C19.7829 20.3839 19.8201 20.2498 19.8611 20.1194C19.9095 19.9666 19.9505 19.948 20.0921 20.0188C20.3342 20.1455 20.5875 20.2125 20.8558 20.246C21.0271 20.2684 21.1985 20.2498 21.3549 20.179C21.653 20.0486 21.7014 19.7021 21.4481 19.4973C21.3624 19.4265 21.2655 19.3743 21.165 19.3296C20.9042 19.2141 20.6322 19.1285 20.3827 18.9794C19.9841 18.741 19.727 18.4095 19.7568 17.9252C19.7903 17.3739 20.1033 17.0311 20.6062 16.8486C20.8148 16.7741 20.8148 16.7741 20.8185 16.558C20.8185 16.4835 20.8185 16.409 20.8185 16.3382C20.8222 16.1743 20.852 16.1445 21.0122 16.1408C21.0644 16.1408 21.1128 16.1408 21.165 16.1408C21.5114 16.1408 21.5114 16.1408 21.5151 16.4872C21.5151 16.7331 21.5151 16.7331 21.761 16.7741C21.9473 16.8039 22.1298 16.8598 22.3012 16.9343C22.398 16.9753 22.4315 17.0423 22.4055 17.1429C22.3608 17.2919 22.3198 17.4446 22.2714 17.5937C22.2267 17.7352 22.182 17.7538 22.0441 17.6905C21.7722 17.5601 21.4853 17.5042 21.1873 17.5191C21.1091 17.5229 21.0309 17.534 20.9601 17.5676C20.6993 17.6793 20.6583 17.9662 20.8781 18.145C20.9899 18.2344 21.1165 18.2977 21.2506 18.3536C21.4816 18.4505 21.7126 18.5399 21.9286 18.6591C22.6253 19.0428 22.8115 19.9182 22.3198 20.5105C22.141 20.7266 21.9137 20.8719 21.6455 20.9427C21.53 20.9762 21.4742 21.0358 21.4816 21.1587C21.4853 21.2779 21.4816 21.3971 21.4816 21.5163C21.4816 21.6244 21.4257 21.6803 21.3214 21.684C21.191 21.6877 21.0644 21.6877 20.934 21.684C20.8222 21.6803 20.7664 21.6169 20.7664 21.5089C20.7664 21.4232 20.7664 21.3338 20.7626 21.2481C20.7589 21.0544 20.7552 21.047 20.5689 21.0172C20.3305 20.9799 20.0995 20.924 19.8797 20.8197C19.7121 20.7415 19.6972 20.6968 19.7456 20.518Z" fill="white"/>
</svg>
